<svg width="104" height="104" viewBox="0 0 104 104" fill="none" xmlns="http://www.w3.org/2000/svg">
<path d="M103.013 56.1618C104.329 53.5557 104.329 50.4442 103.013 47.8381L101.651 45.1393C101.354 44.551 101.25 43.8959 101.35 43.2444L101.812 40.2568C102.258 37.3718 101.297 34.4125 99.2399 32.3406L97.1104 30.195C96.646 29.7272 96.3447 29.1361 96.2393 28.4854L95.7554 25.5012C95.2931 22.6516 93.4995 20.1582 90.9491 18.8124L88.329 17.2671C88.2782 17.2372 88.2268 17.2088 88.1744 17.182C87.5883 16.8807 87.1193 16.4117 86.818 15.8254L85.4354 13.137C84.1319 10.6018 81.4737 8.72704 78.4983 8.24437L75.5144 7.76049C74.8637 7.65485 74.2726 7.3538 73.8047 6.88962L71.6592 4.75968C69.5873 2.70308 66.6286 1.74222 63.7431 2.1875L60.7556 2.64924C60.1037 2.75 59.4487 2.6462 58.8605 2.3492L56.1617 0.986735C53.5558 -0.32881 50.4443 -0.329013 47.8384 0.986735L45.1395 2.3492C44.5514 2.64599 43.8964 2.7496 43.2446 2.64945L40.257 2.18771C37.3713 1.74141 34.4126 2.70328 32.3407 4.75989L30.1949 6.88942C29.7273 7.3538 29.1362 7.65485 28.4855 7.76049L25.5012 8.24437C22.5259 8.72704 19.8678 10.6016 18.5643 13.137L17.1819 15.8254C16.8804 16.4115 16.4114 16.8807 15.8251 17.182L13.1365 18.5646C10.6013 19.8681 8.72655 22.5262 8.24409 25.5014L7.76 28.4858C7.65457 29.1365 7.35331 29.7274 6.88893 30.1952L4.7596 32.3408C2.703 34.4127 1.74153 37.3718 2.18743 40.2568L2.64937 43.2446C2.75013 43.8959 2.64632 44.551 2.34913 45.1393L0.986658 47.8381C-0.328886 50.444 -0.328886 53.5555 0.986658 56.1616L2.34913 58.8603C2.64612 59.4486 2.74993 60.1038 2.64937 60.7552L2.18743 63.743C1.74153 66.6281 2.7032 69.5872 4.7596 71.6591L6.88934 73.8048C7.35372 74.2727 7.65498 74.8636 7.76041 75.5145L8.2445 78.4984C8.72696 81.4738 10.6018 84.132 13.137 85.4355L15.8253 86.8179C16.4116 87.1193 16.8807 87.5884 17.1821 88.1747L18.5645 90.8632C19.8683 93.3985 22.5264 95.2732 25.5016 95.7557L28.4857 96.2398C29.1364 96.3454 29.7275 96.6465 30.1952 97.1107L32.3409 99.2406C34.4132 101.297 37.3721 102.258 40.257 101.813L43.2448 101.351C43.8958 101.25 44.5514 101.354 45.1395 101.651L47.8384 103.013C49.1413 103.671 50.5707 104 52 104C53.4295 104 54.8588 103.671 56.1617 103.013L58.8605 101.651C59.4487 101.354 60.1043 101.25 60.7554 101.351L63.743 101.812C66.628 102.258 69.5871 101.297 71.6592 99.2402L73.8047 97.1105C74.2724 96.6461 74.8635 96.345 75.5144 96.2394L78.4983 95.7553C81.348 95.2932 83.8416 93.4996 85.1874 90.949L86.7327 88.3288C86.7625 88.2781 86.791 88.2267 86.8178 88.1743C87.1191 87.5882 87.5883 87.1191 88.1744 86.8177L90.8627 85.4353C93.4589 84.1005 95.288 81.5831 95.7554 78.7014L96.2393 75.7174C96.3449 75.0667 96.646 74.4756 97.1104 74.0078C97.1427 73.9753 99.2933 71.605 99.2933 71.605C101.313 69.5358 102.254 66.6029 101.812 63.743L101.35 60.7554C101.25 60.104 101.353 59.4486 101.65 58.8603L103.013 56.1618Z" fill="url(#paint0_linear_3413_24738)"/>
<circle cx="52.0099" cy="52.0071" r="36.7683" fill="#C9E8FF"/>
<path d="M41.3251 64.6517C46.3024 64.6517 49.9274 61.7994 49.916 57.8676C49.9274 54.9585 48.1092 52.8676 44.8478 52.4017V52.2199C47.3706 51.6744 49.0638 49.7994 49.0524 47.1858C49.0638 43.6403 46.041 40.7426 41.3933 40.7426C36.8706 40.7426 33.3706 43.4358 33.2797 47.3335H37.3365C37.4047 45.379 39.2228 44.163 41.3706 44.163C43.541 44.163 44.9842 45.4812 44.9728 47.4358C44.9842 49.4699 43.3024 50.8221 40.8933 50.8221H38.8365V54.0721H40.8933C43.8365 54.0721 45.5865 55.5494 45.5751 57.6517C45.5865 59.7085 43.8024 61.1176 41.3138 61.1176C38.9728 61.1176 37.166 59.9017 37.0638 58.004H32.791C32.9047 61.9358 36.416 64.6517 41.3251 64.6517ZM62.4189 64.7767C68.0325 64.788 71.3848 60.3562 71.3848 52.7199C71.3848 45.129 68.0098 40.7426 62.4189 40.7426C56.828 40.7426 53.4643 45.1176 53.453 52.7199C53.453 60.3449 56.8052 64.7767 62.4189 64.7767ZM62.4189 61.2199C59.5211 61.2199 57.703 58.3108 57.7143 52.7199C57.7257 47.1744 59.5325 44.254 62.4189 44.254C65.3166 44.254 67.1234 47.1744 67.1348 52.7199C67.1348 58.3108 65.328 61.2199 62.4189 61.2199Z" fill="url(#paint1_linear_3413_24738)"/>
<defs>
<linearGradient id="paint0_linear_3413_24738" x1="51.9999" y1="0" x2="51.9999" y2="104" gradientUnits="userSpaceOnUse">
<stop stop-color="#FFDE01"/>
<stop offset="1" stop-color="#FD6400"/>
</linearGradient>
<linearGradient id="paint1_linear_3413_24738" x1="51.9984" y1="30.3335" x2="51.9984" y2="75.1112" gradientUnits="userSpaceOnUse">
<stop stop-color="#FFBE01"/>
<stop offset="1" stop-color="#FE8C01"/>
</linearGradient>
</defs>
</svg>
