<svg width="32" height="32" viewBox="0 0 32 32" fill="none" xmlns="http://www.w3.org/2000/svg">
<path d="M26.3239 24.0658L21.216 22.7894L20.7813 21.0574C22.165 19.6709 23.069 17.8787 23.3613 15.9424C24.1368 15.7255 24.7064 15.0649 24.8066 14.2664L25.1399 11.6016C25.2556 10.6864 24.7294 9.81106 23.8666 9.48317L23.9893 6.97432L24.4879 6.476C25.5853 5.31947 25.6165 3.51685 24.5599 2.32304C23.4012 0.717216 21.4796 -0.157269 19.5066 0.0234113C17.726 -0.0550313 15.9635 0.409691 14.4533 1.35575C8.77336 1.47697 8.00005 4.11373 8.00005 6.68516C8.00005 7.28341 8.14536 8.63042 8.24005 9.44314C7.32068 9.73442 6.74037 10.6399 6.86005 11.5962L7.19337 14.261C7.29993 15.118 7.9453 15.8096 8.79336 15.9757C9.08511 17.84 9.94073 19.5705 11.2454 20.9348L10.7814 22.7907L5.67337 24.0671C2.3355 24.8983 -0.00517888 27.8964 8.60525e-06 31.3338C8.60525e-06 31.7017 0.298508 32 0.666694 32C1.03488 32 31.3333 32 31.3333 32C31.7015 32 32 31.7017 32 31.3338C32.0055 27.8951 29.6633 24.8961 26.3239 24.0658Z" fill="#075C91" fill-opacity="0.8"/>
</svg>
