<svg width="37" height="35" viewBox="0 0 37 35" fill="none" xmlns="http://www.w3.org/2000/svg">
<path d="M11.5625 19.5938C11.5625 19.0415 12.0102 18.5938 12.5625 18.5938H25.4375V29.9062C25.4375 32.1154 23.6466 33.9062 21.4375 33.9062H15.5625C13.3534 33.9062 11.5625 32.1154 11.5625 29.9062V19.5938Z" fill="#707070"/>
<path d="M15.2853 3.69522C15.1837 3.66086 14.8117 3.54504 14.8245 3.43367C14.8399 3.29876 15.325 3.25549 15.4333 3.2434C15.8517 3.19695 16.3092 3.19695 16.7168 3.3064C16.9052 3.35667 17.103 3.44322 16.8184 3.54822C16.5904 3.63222 16.326 3.65767 16.0852 3.6704C15.7111 3.69077 15.0566 3.72577 14.7727 3.44767C14.6522 3.32995 14.4619 3.51004 14.5823 3.62776C14.809 3.84986 15.1992 3.89313 15.508 3.91858C15.9244 3.95231 16.3798 3.94658 16.7868 3.84413C16.9893 3.79322 17.3041 3.6914 17.3277 3.45467C17.3492 3.23767 17.109 3.12186 16.9288 3.05631C16.5682 2.92586 16.1544 2.89276 15.7717 2.91249C15.4232 2.93095 14.9852 2.95258 14.6886 3.14667C14.5238 3.25486 14.4276 3.42795 14.5527 3.59913C14.7108 3.81549 15.0162 3.83331 15.2651 3.83204C15.3519 3.8314 15.362 3.72067 15.2853 3.69522Z" fill="#707070"/>
<path d="M20.594 3.69522C20.4924 3.66086 20.1204 3.54504 20.1332 3.43367C20.1487 3.29876 20.6337 3.25549 20.742 3.2434C21.1604 3.19695 21.6179 3.19695 22.0256 3.3064C22.2139 3.35667 22.4117 3.44322 22.1271 3.54822C21.8991 3.63222 21.6347 3.65767 21.3939 3.6704C21.0198 3.69077 20.3653 3.72577 20.0814 3.44767C19.961 3.32995 19.7706 3.51004 19.891 3.62776C20.1177 3.84986 20.5079 3.89313 20.8167 3.91858C21.2331 3.95231 21.6885 3.94658 22.0955 3.84413C22.298 3.79322 22.6128 3.6914 22.6364 3.45467C22.6579 3.23767 22.4178 3.12186 22.2375 3.05631C21.8769 2.92586 21.4632 2.89276 21.0804 2.91249C20.7319 2.93095 20.294 2.95258 19.9973 3.14667C19.8325 3.25486 19.7363 3.42795 19.8614 3.59913C20.0195 3.81549 20.3249 3.83331 20.5738 3.83204C20.6599 3.8314 20.67 3.72067 20.594 3.69522Z" fill="#707070"/>
<path d="M25.2892 29.218C25.2246 29.7684 25.0127 30.3259 24.568 30.7045C24.1698 31.0437 23.6599 31.2333 23.1533 31.3778C22.0904 31.6807 20.9811 31.8194 19.8758 31.8894C17.8428 32.018 15.6194 31.9976 13.6719 31.3574C12.8182 31.0768 11.9732 30.5683 11.871 29.6443C11.8528 29.4833 11.5837 29.4814 11.6019 29.6443C11.797 31.4077 14.0701 31.822 15.5844 32.0231C16.9191 32.2 18.2787 32.228 19.6235 32.1599C20.8519 32.0975 22.0958 31.9569 23.2764 31.6183C23.8597 31.451 24.455 31.2187 24.8835 30.793C25.3134 30.366 25.5125 29.792 25.5818 29.2173C25.6027 29.0417 25.3101 29.0423 25.2892 29.218Z" fill="white"/>
<path d="M25.2946 17.6584C25.1082 18.8032 24.2115 19.383 23.1049 19.6935C22.0171 19.999 20.8801 20.1332 19.7506 20.1988C17.7405 20.3152 15.5286 20.2955 13.6113 19.635C12.7704 19.3448 11.947 18.8217 11.9194 17.8939C11.9147 17.7303 11.6456 17.7297 11.6503 17.8939C11.7015 19.6159 13.9154 20.0798 15.3557 20.293C16.6803 20.489 18.0325 20.5278 19.3705 20.4737C20.6171 20.4234 21.8778 20.293 23.082 19.9742C23.6699 19.8189 24.266 19.6152 24.7335 19.2315C25.2024 18.8465 25.4816 18.3069 25.5765 17.7322C25.6054 17.5579 25.3228 17.4834 25.2946 17.6584Z" fill="white"/>
<path d="M25.2946 4.29417C25.1082 5.43899 24.2115 6.01872 23.1049 6.32926C22.0171 6.63472 20.8801 6.76899 19.7506 6.83453C17.7405 6.95099 15.5286 6.93126 13.6113 6.27072C12.7704 5.98053 11.947 5.45744 11.9194 4.52962C11.9147 4.36608 11.6456 4.36544 11.6503 4.52962C11.7015 6.25162 13.9154 6.71553 15.3557 6.92871C16.6803 7.12471 18.0325 7.16353 19.3705 7.10944C20.6171 7.05917 21.8778 6.92872 23.082 6.6099C23.6699 6.45462 24.266 6.25099 24.7335 5.86726C25.2024 5.48226 25.4816 4.94262 25.5765 4.36799C25.6054 4.19362 25.3228 4.11917 25.2946 4.29417Z" fill="#707070"/>
<path d="M15.347 4.97112C14.8068 4.87821 14.282 4.69684 13.7687 4.51484C13.4075 4.38694 13.0402 4.23039 12.7449 3.99048C12.5854 3.86066 12.3701 3.66403 12.3802 3.44703C12.3944 3.15175 12.7597 2.92585 12.9951 2.79285C13.8468 2.31366 14.9157 2.15775 15.8838 2.03303C16.9945 1.89048 18.1186 1.84403 19.2387 1.8663C20.3743 1.88921 21.5152 2.01203 22.6158 2.28248C23.0584 2.3913 23.5038 2.51921 23.9141 2.71203C24.1718 2.83294 24.486 2.98566 24.6427 3.22621C25.0201 3.8053 23.7735 4.27048 23.3908 4.40221C22.3124 4.77384 21.1405 4.92403 20.0016 5.00357C18.5969 5.10157 17.1707 5.09203 15.7735 4.9183C15.131 4.83875 14.4953 4.71594 13.8818 4.51548C13.4667 4.37994 12.8229 4.19348 12.5518 3.8333C12.3527 3.56857 11.8858 3.82248 12.0869 4.09039C12.3641 4.45884 12.8323 4.66184 13.2602 4.83303C13.8488 5.06721 14.465 5.22948 15.0933 5.33257C16.5 5.56357 17.9444 5.6113 19.3685 5.5553C20.7099 5.50248 22.1045 5.38284 23.3867 4.98448C24.1072 4.76048 25.302 4.31821 25.3329 3.44766C25.3605 2.67512 24.4147 2.25003 23.7823 2.00694C22.6111 1.55703 21.3161 1.36994 20.0621 1.27894C18.751 1.18348 17.425 1.24457 16.1213 1.40175C14.979 1.53921 13.7297 1.7053 12.728 2.2793C11.9806 2.70757 11.4781 3.45275 12.1441 4.16803C12.9305 5.01312 14.2094 5.12512 15.3079 5.24412C15.4714 5.26257 15.5098 4.99912 15.347 4.97112Z" fill="#707070"/>
<path d="M25.1544 30.2103C25.1624 31.0757 24.9404 31.9024 24.1062 32.3777C23.3528 32.8066 22.4123 32.974 21.5553 33.1051C19.4967 33.4194 17.2942 33.4449 15.237 33.107C14.6854 33.0166 14.1418 32.8817 13.6191 32.6902C13.2767 32.5648 12.7755 32.3962 12.5521 32.099C12.353 31.8343 11.8861 32.0882 12.0873 32.3561C12.5737 33.002 13.6453 33.2775 14.4116 33.4621C15.5431 33.7338 16.7379 33.814 17.9017 33.8344C19.0937 33.8554 20.2899 33.7962 21.4698 33.6364C22.4628 33.5015 23.5681 33.3183 24.4379 32.8168C25.4268 32.2466 25.7376 31.2507 25.743 30.2109C25.7443 29.852 25.151 29.8514 25.1544 30.2103Z" fill="white"/>
<path d="M12.5038 2.51319C11.3232 3.2571 11.5008 4.5381 11.492 5.68292C11.4779 7.42401 11.4692 9.1651 11.4645 10.9068C11.4577 13.1456 11.4719 15.3843 11.4719 17.623C11.4719 19.6136 11.4873 21.6041 11.4873 23.594C11.4873 24.2488 11.4873 24.9043 11.4873 25.5591C11.4873 25.8652 11.4382 26.1936 11.4954 26.4965C11.5183 26.618 11.525 26.6237 11.4914 26.5117C11.492 26.5149 11.484 26.513 11.484 26.513C11.484 26.8312 11.9717 26.8312 11.9717 26.513C11.9717 26.513 11.971 26.5162 11.9717 26.513C11.9757 26.4984 11.973 26.4201 11.9562 26.5633C11.9408 26.6963 11.969 26.5264 11.9757 26.4939C11.9825 26.4564 11.9845 26.4182 11.9878 26.3806C12.002 26.2286 11.9993 26.0771 11.9993 25.925C11.9993 25.3536 11.9986 24.7827 11.9986 24.2119C11.9979 22.355 11.9973 20.4981 11.9966 18.6418C11.9959 16.4139 11.9966 14.186 11.9892 11.9575C11.9831 10.0974 11.9778 8.23728 11.9623 6.37719C11.9576 5.81592 11.9529 5.25464 11.9482 4.69273C11.9461 4.41146 11.9179 4.13464 11.9831 3.8591C12.0881 3.4181 12.2993 3.01019 12.6754 2.72192C12.7978 2.62773 12.6363 2.42983 12.5038 2.51319Z" fill="#707070"/>
<path d="M25.155 18.8579C25.1536 22.2187 25.1583 25.5801 25.157 28.9409C25.157 29.2914 25.1577 29.6419 25.1603 29.9931C25.161 30.091 25.1671 30.2033 25.1772 30.3005C25.1825 30.347 25.1899 30.4881 25.1899 30.4196C25.1899 30.6935 25.6777 30.6935 25.6777 30.4196C25.6777 30.4881 25.681 30.3731 25.6857 30.3272C25.6945 30.2471 25.7012 30.1595 25.7032 30.0787C25.712 29.7932 25.7046 29.5022 25.7046 29.2174C25.7046 28.3035 25.6932 27.3882 25.6932 26.4742C25.6932 24.4176 25.6817 22.359 25.6817 20.3025C25.6817 19.8212 25.6817 19.3399 25.6817 18.8579C25.6817 18.506 25.155 18.5053 25.155 18.8579Z" fill="white"/>
<path d="M24.3217 2.40522C25.1303 3.02667 24.9985 3.89071 24.9899 4.75054C24.9788 5.88118 24.977 7.01181 24.9702 8.14245C24.9542 10.9021 24.9523 13.6581 24.9462 16.4183C24.9449 17.0698 24.9449 17.7081 24.9443 18.3686C24.9443 18.6688 25.437 18.6688 25.437 18.3686C25.437 16.5673 25.4327 14.7281 25.429 12.9058C25.4235 10.2248 25.4105 7.54621 25.3951 4.86583C25.3896 3.8805 25.4358 2.84774 24.4781 2.20647C24.3587 2.12721 24.2065 2.31635 24.3217 2.40522Z" fill="#707070"/>
<path d="M16.0915 34.8326C15.399 34.724 14.7122 34.5887 14.0367 34.4419C13.314 34.2848 12.5435 34.1199 12.2023 33.6304C12.0008 33.3413 12.0329 33.0279 12.0361 32.7198C12.0468 31.7266 12.0461 30.7329 12.0499 29.7397C12.0562 28.2199 12.0568 26.7002 12.0575 25.1805C12.0581 23.7546 12.0587 22.3287 12.0594 20.9023C12.0594 20.419 12.06 19.9358 12.06 19.4521C12.06 19.2255 12.0946 18.9841 12.0386 18.7595C12.026 18.7097 11.9844 18.6176 12.0348 18.7484C12.0335 18.7459 12.0348 18.748 12.0348 18.748C12.0348 18.5423 11.5784 18.5423 11.5784 18.748C11.5784 18.748 11.579 18.7451 11.5784 18.7472C11.6086 18.669 11.5948 18.6834 11.5746 18.7657C11.5671 18.7961 11.5803 18.8257 11.5765 18.8566C11.5633 18.9783 11.5815 19.0988 11.5815 19.221C11.5815 19.6635 11.5815 20.1056 11.5815 20.5482C11.5815 21.9494 11.5671 23.3507 11.5671 24.752C11.5671 26.3128 11.5582 27.8736 11.5639 29.4349C11.5677 30.4981 11.5627 31.5612 11.5734 32.6244C11.5759 32.8539 11.5557 33.0921 11.6061 33.3195C11.8529 34.4312 13.6785 34.6961 15.1 34.8882C15.406 34.9297 15.7132 34.9675 16.0223 34.9988C16.1853 35.0152 16.2603 34.8589 16.0915 34.8326Z" fill="white"/>
<path d="M12.3694 20.4094C12.5517 20.585 12.7818 20.8332 13.0603 20.8389C13.135 20.8402 13.2003 20.7651 13.176 20.6957C13.0879 20.4444 12.7758 20.3108 12.543 20.1968C12.4011 20.1275 12.2524 20.2967 12.3694 20.4094Z" fill="white"/>
<path d="M13.5826 21.0232C13.7003 21.1842 13.9149 21.2599 14.1067 21.3172C14.2802 21.3694 14.55 21.4546 14.6866 21.2962C14.7222 21.2548 14.7316 21.2077 14.7054 21.1587C14.6152 20.9926 14.3784 21.0022 14.2076 20.9735C14.0206 20.9417 13.8228 20.8794 13.6324 20.9093C13.5813 20.9169 13.5544 20.985 13.5826 21.0232Z" fill="white"/>
<path d="M15.2907 21.3817C15.5269 21.4886 15.8505 21.6713 16.1189 21.607C16.2178 21.5834 16.2601 21.4511 16.1808 21.3843C15.9729 21.2093 15.6002 21.2271 15.3372 21.2188C15.249 21.2156 15.2067 21.3435 15.2907 21.3817Z" fill="white"/>
<path d="M17.0265 21.6464C17.2593 21.6534 17.7214 21.9169 17.8775 21.6337C17.9057 21.5821 17.895 21.5319 17.858 21.4892C17.7645 21.381 17.5842 21.4027 17.451 21.404C17.2902 21.4059 17.1563 21.4358 17.0016 21.4701C16.8953 21.4943 16.9222 21.6432 17.0265 21.6464Z" fill="white"/>
<path d="M18.6116 21.6942C18.8376 21.7178 19.1175 21.7922 19.3381 21.7292C19.4989 21.6834 19.4989 21.467 19.3381 21.4212C19.1175 21.3582 18.8376 21.4327 18.6116 21.4562C18.4495 21.4721 18.4488 21.6777 18.6116 21.6942Z" fill="white"/>
<path d="M19.9964 21.6459C20.1376 21.7191 20.3018 21.6879 20.4525 21.6587C20.6106 21.6281 20.7606 21.5855 20.8245 21.434C20.844 21.3869 20.8097 21.3417 20.7734 21.315C20.6429 21.2202 20.4659 21.2768 20.3267 21.3246C20.1894 21.3717 20.0455 21.4226 19.9681 21.546C19.9473 21.5791 19.9594 21.6268 19.9964 21.6459Z" fill="white"/>
<path d="M21.4933 21.5486C21.7281 21.4773 22.0302 21.4658 22.1681 21.2457C22.2206 21.1623 22.1513 21.0739 22.0591 21.0662C21.8176 21.0452 21.5882 21.2164 21.4025 21.3449C21.3023 21.4137 21.3568 21.5899 21.4933 21.5486Z" fill="white"/>
<path d="M22.8063 21.1571C23.0928 21.194 23.4938 21.0979 23.5873 20.8039C23.6149 20.7173 23.5234 20.6314 23.4319 20.6569C23.3108 20.6906 23.2213 20.767 23.1191 20.8351C23.0242 20.8981 22.9173 20.9458 22.8063 20.977C22.7208 21.0005 22.7033 21.1437 22.8063 21.1571Z" fill="white"/>
<path d="M24.1443 20.7782C24.258 20.7305 24.3777 20.6872 24.4961 20.6503C24.6037 20.6166 24.7268 20.6026 24.8177 20.5358C24.9105 20.4677 24.932 20.2825 24.7793 20.2602C24.488 20.2169 24.2082 20.4454 24.0346 20.6439C23.9673 20.7203 24.0494 20.8177 24.1443 20.7782Z" fill="white"/>
<path d="M12.3694 21.7231C12.5517 21.8988 12.7818 22.1469 13.0603 22.1527C13.135 22.1539 13.2003 22.0789 13.176 22.0095C13.0879 21.7581 12.7758 21.6245 12.543 21.5106C12.4011 21.4406 12.2524 21.6099 12.3694 21.7231Z" fill="white"/>
<path d="M13.5826 22.3376C13.7003 22.4986 13.9149 22.5743 14.1067 22.6316C14.2802 22.6838 14.55 22.769 14.6866 22.6106C14.7222 22.5692 14.7316 22.5221 14.7054 22.4731C14.6152 22.307 14.3784 22.3166 14.2076 22.2879C14.0206 22.2568 13.8228 22.1938 13.6324 22.2237C13.5813 22.2313 13.5544 22.2988 13.5826 22.3376Z" fill="white"/>
<path d="M15.2907 22.6971C15.5269 22.8041 15.8505 22.9867 16.1189 22.9224C16.2178 22.8989 16.2601 22.7665 16.1808 22.6997C15.9729 22.5247 15.6002 22.5425 15.3372 22.5342C15.249 22.5311 15.2067 22.659 15.2907 22.6971Z" fill="white"/>
<path d="M17.0265 22.9609C17.2593 22.9679 17.7214 23.2313 17.8775 22.9481C17.9057 22.8966 17.895 22.8463 17.858 22.8037C17.7645 22.6955 17.5842 22.7171 17.451 22.7184C17.2902 22.7203 17.1563 22.7502 17.0016 22.7846C16.8953 22.8088 16.9222 22.9577 17.0265 22.9609Z" fill="white"/>
<path d="M18.6116 23.0087C18.8376 23.0322 19.1175 23.1067 19.3381 23.0437C19.4989 22.9978 19.4989 22.7815 19.3381 22.7357C19.1175 22.6727 18.8376 22.7471 18.6116 22.7707C18.4495 22.7866 18.4488 22.9915 18.6116 23.0087Z" fill="white"/>
<path d="M19.9964 22.9604C20.1376 23.0336 20.3018 23.0024 20.4525 22.9731C20.6106 22.9426 20.7606 22.8999 20.8245 22.7485C20.844 22.7014 20.8097 22.6562 20.7734 22.6295C20.6429 22.5347 20.4659 22.5913 20.3267 22.639C20.1894 22.6861 20.0455 22.737 19.9681 22.8605C19.9473 22.8929 19.9594 22.9413 19.9964 22.9604Z" fill="white"/>
<path d="M21.4933 22.8621C21.7281 22.7908 22.0302 22.7793 22.1681 22.5591C22.2206 22.4758 22.1513 22.3873 22.0591 22.3797C21.8176 22.3587 21.5882 22.5299 21.4025 22.6584C21.3023 22.7278 21.3568 22.9034 21.4933 22.8621Z" fill="white"/>
<path d="M22.8063 22.4715C23.0928 22.5084 23.4938 22.4123 23.5873 22.1183C23.6149 22.0318 23.5234 21.9459 23.4319 21.9713C23.3108 22.0051 23.2213 22.0814 23.1191 22.1495C23.0242 22.2125 22.9173 22.2603 22.8063 22.2914C22.7208 22.315 22.7033 22.4582 22.8063 22.4715Z" fill="white"/>
<path d="M24.1443 22.0907C24.258 22.043 24.3777 21.9997 24.4961 21.9628C24.6037 21.9291 24.7268 21.9151 24.8177 21.8483C24.9105 21.7802 24.932 21.595 24.7793 21.5727C24.488 21.5294 24.2082 21.7579 24.0346 21.9564C23.9673 22.0334 24.0494 22.1308 24.1443 22.0907Z" fill="white"/>
<path d="M12.3694 23.0373C12.5517 23.2129 12.7818 23.4611 13.0603 23.4669C13.135 23.4681 13.2003 23.393 13.176 23.3237C13.0879 23.0723 12.7758 22.9387 12.543 22.8248C12.4011 22.7554 12.2524 22.9247 12.3694 23.0373Z" fill="white"/>
<path d="M13.5826 23.6511C13.7003 23.8121 13.9149 23.8878 14.1067 23.945C14.2802 23.9972 14.55 24.0825 14.6866 23.924C14.7222 23.8827 14.7316 23.8356 14.7054 23.7866C14.6152 23.6205 14.3784 23.6301 14.2076 23.6014C14.0206 23.5702 13.8228 23.5072 13.6324 23.5371C13.5813 23.5454 13.5544 23.6129 13.5826 23.6511Z" fill="white"/>
<path d="M15.2907 24.0096C15.5269 24.1165 15.8505 24.2992 16.1189 24.2349C16.2178 24.2114 16.2601 24.079 16.1808 24.0122C15.9729 23.8372 15.6002 23.855 15.3372 23.8467C15.249 23.8442 15.2067 23.9721 15.2907 24.0096Z" fill="white"/>
<path d="M17.0265 24.2743C17.2593 24.2813 17.7214 24.5448 17.8775 24.2616C17.9057 24.2101 17.895 24.1598 17.858 24.1172C17.7645 24.009 17.5842 24.0306 17.451 24.0319C17.2902 24.0338 17.1563 24.0637 17.0016 24.0981C16.8953 24.1222 16.9222 24.2718 17.0265 24.2743Z" fill="white"/>
<path d="M18.6116 24.3221C18.8376 24.3457 19.1175 24.4202 19.3381 24.3572C19.4989 24.3113 19.4989 24.095 19.3381 24.0491C19.1175 23.9861 18.8376 24.0606 18.6116 24.0841C18.4495 24.1007 18.4488 24.3056 18.6116 24.3221Z" fill="white"/>
<path d="M19.9964 24.2739C20.1376 24.347 20.3018 24.3159 20.4525 24.2866C20.6106 24.256 20.7606 24.2134 20.8245 24.062C20.844 24.0149 20.8097 23.9697 20.7734 23.943C20.6429 23.8481 20.4659 23.9048 20.3267 23.9525C20.1894 23.9996 20.0455 24.0505 19.9681 24.174C19.9473 24.2064 19.9594 24.2548 19.9964 24.2739Z" fill="white"/>
<path d="M21.4933 24.1765C21.7281 24.1052 22.0302 24.0938 22.1681 23.8736C22.2206 23.7902 22.1513 23.7018 22.0591 23.6941C21.8176 23.6731 21.5882 23.8443 21.4025 23.9729C21.3023 24.0422 21.3568 24.2179 21.4933 24.1765Z" fill="white"/>
<path d="M22.8063 23.785C23.0928 23.8219 23.4938 23.7258 23.5873 23.4318C23.6149 23.3453 23.5234 23.2594 23.4319 23.2848C23.3108 23.3185 23.2213 23.3949 23.1191 23.463C23.0242 23.526 22.9173 23.5737 22.8063 23.6049C22.7208 23.6291 22.7033 23.7723 22.8063 23.785Z" fill="white"/>
<path d="M24.1443 23.4052C24.258 23.3574 24.3777 23.3142 24.4961 23.2773C24.6037 23.2435 24.7268 23.2295 24.8177 23.1627C24.9105 23.0946 24.932 22.9094 24.7793 22.8872C24.488 22.8439 24.2082 23.0723 24.0346 23.2709C23.9673 23.3479 24.0494 23.4446 24.1443 23.4052Z" fill="white"/>
<path d="M12.3694 24.3508C12.5517 24.5265 12.7818 24.7747 13.0603 24.7804C13.135 24.7817 13.2003 24.7066 13.176 24.6372C13.0879 24.3858 12.7758 24.2522 12.543 24.1383C12.4011 24.0689 12.2524 24.2376 12.3694 24.3508Z" fill="white"/>
<path d="M13.5826 24.9655C13.7003 25.1265 13.9149 25.2022 14.1067 25.2595C14.2802 25.3117 14.55 25.397 14.6866 25.2385C14.7222 25.1971 14.7316 25.1501 14.7054 25.1011C14.6152 24.9343 14.3784 24.9445 14.2076 24.9159C14.0206 24.8847 13.8228 24.8217 13.6324 24.8516C13.5813 24.8592 13.5544 24.9273 13.5826 24.9655Z" fill="white"/>
<path d="M15.2907 25.3241C15.5269 25.431 15.8505 25.6136 16.1189 25.5494C16.2178 25.5258 16.2601 25.3935 16.1808 25.3266C15.9729 25.1516 15.6002 25.1695 15.3372 25.1612C15.249 25.158 15.2067 25.2859 15.2907 25.3241Z" fill="white"/>
<path d="M17.0265 25.5878C17.2593 25.5948 17.7214 25.8583 17.8775 25.5751C17.9057 25.5235 17.895 25.4733 17.858 25.4306C17.7645 25.3225 17.5842 25.3441 17.451 25.3454C17.2902 25.3473 17.1563 25.3772 17.0016 25.4115C16.8953 25.4357 16.9222 25.5846 17.0265 25.5878Z" fill="white"/>
<path d="M18.6116 25.6356C18.8376 25.6592 19.1175 25.7336 19.3381 25.6706C19.4989 25.6248 19.4989 25.4084 19.3381 25.3626C19.1175 25.2996 18.8376 25.3741 18.6116 25.3976C18.4495 25.4135 18.4488 25.6191 18.6116 25.6356Z" fill="white"/>
<path d="M19.9964 25.5873C20.1376 25.6605 20.3018 25.6293 20.4525 25.6001C20.6106 25.5695 20.7606 25.5269 20.8245 25.3754C20.844 25.3283 20.8097 25.2832 20.7734 25.2564C20.6429 25.1616 20.4659 25.2182 20.3267 25.266C20.1894 25.3131 20.0455 25.364 19.9681 25.4874C19.9473 25.5199 19.9594 25.5683 19.9964 25.5873Z" fill="white"/>
<path d="M21.4933 25.489C21.7281 25.4177 22.0302 25.4063 22.1681 25.1861C22.2206 25.1027 22.1513 25.0143 22.0591 25.0066C21.8176 24.9856 21.5882 25.1568 21.4025 25.2854C21.3023 25.3547 21.3568 25.5304 21.4933 25.489Z" fill="white"/>
<path d="M22.8063 25.0995C23.0928 25.1364 23.4938 25.0403 23.5873 24.7463C23.6149 24.6597 23.5234 24.5738 23.4319 24.5993C23.3108 24.633 23.2213 24.7094 23.1191 24.7775C23.0242 24.8405 22.9173 24.8882 22.8063 24.9194C22.7208 24.9429 22.7033 25.0861 22.8063 25.0995Z" fill="white"/>
<path d="M24.1443 24.7196C24.258 24.6719 24.3777 24.6286 24.4961 24.5917C24.6037 24.558 24.7268 24.544 24.8177 24.4772C24.9105 24.4091 24.932 24.2239 24.7793 24.2016C24.488 24.1583 24.2082 24.3868 24.0346 24.5853C23.9673 24.6617 24.0494 24.7591 24.1443 24.7196Z" fill="white"/>
<path d="M12.3694 25.6645C12.5517 25.8402 12.7818 26.0883 13.0603 26.0941C13.135 26.0953 13.2003 26.0203 13.176 25.9509C13.0879 25.6995 12.7758 25.5659 12.543 25.452C12.4011 25.382 12.2524 25.5513 12.3694 25.6645Z" fill="white"/>
<path d="M13.5826 26.279C13.7003 26.44 13.9149 26.5158 14.1067 26.573C14.2802 26.6252 14.55 26.7105 14.6866 26.552C14.7222 26.5107 14.7316 26.4636 14.7054 26.4146C14.6152 26.2479 14.3784 26.258 14.2076 26.2294C14.0206 26.1976 13.8228 26.1352 13.6324 26.1651C13.5813 26.1728 13.5544 26.2402 13.5826 26.279Z" fill="white"/>
<path d="M15.2907 26.6386C15.5269 26.7455 15.8505 26.9281 16.1189 26.8638C16.2178 26.8403 16.2601 26.7079 16.1808 26.6411C15.9729 26.4661 15.6002 26.4839 15.3372 26.4756C15.249 26.4725 15.2067 26.6004 15.2907 26.6386Z" fill="white"/>
<path d="M17.0265 26.9023C17.2593 26.9093 17.7214 27.1727 17.8775 26.8895C17.9057 26.838 17.895 26.7877 17.858 26.7451C17.7645 26.6369 17.5842 26.6585 17.451 26.6598C17.2902 26.6617 17.1563 26.6916 17.0016 26.726C16.8953 26.7502 16.9222 26.8991 17.0265 26.9023Z" fill="white"/>
<path d="M18.6116 26.951C18.8376 26.9746 19.1175 27.049 19.3381 26.986C19.4989 26.9402 19.4989 26.7239 19.3381 26.6781C19.1175 26.6151 18.8376 26.6895 18.6116 26.713C18.4495 26.729 18.4488 26.9339 18.6116 26.951Z" fill="white"/>
<path d="M19.9964 26.9018C20.1376 26.975 20.3018 26.9438 20.4525 26.9145C20.6106 26.884 20.7606 26.8413 20.8245 26.6899C20.844 26.6428 20.8097 26.5976 20.7734 26.5709C20.6429 26.4761 20.4659 26.5327 20.3267 26.5804C20.1894 26.6275 20.0455 26.6784 19.9681 26.8019C19.9473 26.8343 19.9594 26.8827 19.9964 26.9018Z" fill="white"/>
<path d="M21.4933 26.8035C21.7281 26.7322 22.0302 26.7207 22.1681 26.5006C22.2206 26.4172 22.1513 26.3287 22.0591 26.3211C21.8176 26.3001 21.5882 26.4713 21.4025 26.5998C21.3023 26.6692 21.3568 26.8448 21.4933 26.8035Z" fill="white"/>
<path d="M22.8063 26.4139C23.0928 26.4508 23.4938 26.3547 23.5873 26.0607C23.6149 25.9742 23.5234 25.8883 23.4319 25.9137C23.3108 25.9475 23.2213 26.0238 23.1191 26.0919C23.0242 26.1549 22.9173 26.2026 22.8063 26.2338C22.7208 26.2574 22.7033 26.4005 22.8063 26.4139Z" fill="white"/>
<path d="M24.1443 26.0325C24.258 25.9847 24.3777 25.9415 24.4961 25.9046C24.6037 25.8708 24.7268 25.8568 24.8177 25.7906C24.9105 25.7226 24.932 25.5374 24.7793 25.5151C24.488 25.4718 24.2082 25.7003 24.0346 25.8988C23.9673 25.9752 24.0494 26.0726 24.1443 26.0325Z" fill="white"/>
<path d="M12.3694 27.0881C12.5517 27.2637 12.7818 27.5119 13.0603 27.5176C13.135 27.5189 13.2003 27.4438 13.176 27.3745C13.0879 27.1231 12.7758 26.9895 12.543 26.8756C12.4011 26.8062 12.2524 26.9755 12.3694 27.0881Z" fill="white"/>
<path d="M13.5826 27.7019C13.7003 27.8629 13.9149 27.9386 14.1067 27.9959C14.2802 28.0481 14.55 28.1333 14.6866 27.9749C14.7222 27.9335 14.7316 27.8864 14.7054 27.8374C14.6152 27.6713 14.3784 27.6809 14.2076 27.6523C14.0206 27.6204 13.8228 27.5581 13.6324 27.588C13.5813 27.5963 13.5544 27.6637 13.5826 27.7019Z" fill="white"/>
<path d="M15.2907 28.0614C15.5269 28.1683 15.8505 28.3509 16.1189 28.2867C16.2178 28.2631 16.2601 28.1307 16.1808 28.0639C15.9729 27.8889 15.6002 27.9067 15.3372 27.8985C15.249 27.8959 15.2067 28.0238 15.2907 28.0614Z" fill="white"/>
<path d="M17.0265 28.3251C17.2593 28.3321 17.7214 28.5956 17.8775 28.3124C17.9057 28.2609 17.895 28.2106 17.858 28.1679C17.7645 28.0598 17.5842 28.0814 17.451 28.0827C17.2902 28.0846 17.1563 28.1145 17.0016 28.1488C16.8953 28.173 16.9222 28.3226 17.0265 28.3251Z" fill="white"/>
<path d="M18.6116 28.3739C18.8376 28.3974 19.1175 28.4719 19.3381 28.4089C19.4989 28.3631 19.4989 28.1467 19.3381 28.1009C19.1175 28.0379 18.8376 28.1124 18.6116 28.1359C18.4495 28.1524 18.4488 28.3574 18.6116 28.3739Z" fill="white"/>
<path d="M19.9964 28.3246C20.1376 28.3978 20.3018 28.3666 20.4525 28.3374C20.6106 28.3068 20.7606 28.2642 20.8245 28.1127C20.844 28.0656 20.8097 28.0205 20.7734 27.9937C20.6429 27.8989 20.4659 27.9556 20.3267 28.0033C20.1894 28.0504 20.0455 28.1013 19.9681 28.2247C19.9473 28.2578 19.9594 28.3062 19.9964 28.3246Z" fill="white"/>
<path d="M21.4933 28.2273C21.7281 28.156 22.0302 28.1446 22.1681 27.9244C22.2206 27.841 22.1513 27.7526 22.0591 27.7449C21.8176 27.7239 21.5882 27.8951 21.4025 28.0237C21.3023 28.093 21.3568 28.2687 21.4933 28.2273Z" fill="white"/>
<path d="M22.8063 27.8368C23.0928 27.8737 23.4938 27.7776 23.5873 27.4836C23.6149 27.397 23.5234 27.3111 23.4319 27.3366C23.3108 27.3703 23.2213 27.4467 23.1191 27.5148C23.0242 27.5778 22.9173 27.6255 22.8063 27.6567C22.7208 27.6809 22.7033 27.8234 22.8063 27.8368Z" fill="white"/>
<path d="M24.1443 27.4559C24.258 27.4082 24.3777 27.3649 24.4961 27.328C24.6037 27.2943 24.7268 27.2803 24.8177 27.2135C24.9105 27.1454 24.932 26.9602 24.7793 26.9379C24.488 26.8947 24.2082 27.1231 24.0346 27.3217C23.9673 27.398 24.0494 27.4954 24.1443 27.4559Z" fill="white"/>
<path d="M12.3694 28.4016C12.5517 28.5773 12.7818 28.8254 13.0603 28.8312C13.135 28.8324 13.2003 28.7573 13.176 28.688C13.0879 28.4366 12.7758 28.303 12.543 28.1891C12.4011 28.1197 12.2524 28.2883 12.3694 28.4016Z" fill="white"/>
<path d="M13.5826 29.0163C13.7003 29.1773 13.9149 29.253 14.1067 29.3103C14.2802 29.3625 14.55 29.4477 14.6866 29.2893C14.7222 29.2479 14.7316 29.2008 14.7054 29.1518C14.6152 28.9857 14.3784 28.9953 14.2076 28.9667C14.0206 28.9355 13.8228 28.8725 13.6324 28.9024C13.5813 28.91 13.5544 28.9781 13.5826 29.0163Z" fill="white"/>
<path d="M15.2907 29.3749C15.5269 29.4818 15.8505 29.6644 16.1189 29.6002C16.2178 29.5766 16.2601 29.4442 16.1808 29.3774C15.9729 29.2024 15.6002 29.2202 15.3372 29.212C15.249 29.2088 15.2067 29.3367 15.2907 29.3749Z" fill="white"/>
<path d="M17.0265 29.6396C17.2593 29.6466 17.7214 29.91 17.8775 29.6268C17.9057 29.5753 17.895 29.525 17.858 29.4824C17.7645 29.3742 17.5842 29.3958 17.451 29.3971C17.2902 29.399 17.1563 29.4289 17.0016 29.4633C16.8953 29.4875 16.9222 29.6364 17.0265 29.6396Z" fill="white"/>
<path d="M18.6116 29.6874C18.8376 29.7109 19.1175 29.7854 19.3381 29.7224C19.4989 29.6766 19.4989 29.4602 19.3381 29.4144C19.1175 29.3514 18.8376 29.4258 18.6116 29.4494C18.4495 29.4653 18.4488 29.6708 18.6116 29.6874Z" fill="white"/>
<path d="M19.9964 29.6391C20.1376 29.7123 20.3018 29.6811 20.4525 29.6518C20.6106 29.6213 20.7606 29.5786 20.8245 29.4272C20.844 29.3801 20.8097 29.3349 20.7734 29.3082C20.6429 29.2134 20.4659 29.27 20.3267 29.3177C20.1894 29.3648 20.0455 29.4157 19.9681 29.5392C19.9473 29.5716 19.9594 29.62 19.9964 29.6391Z" fill="white"/>
<path d="M21.4933 29.5408C21.7281 29.4695 22.0302 29.458 22.1681 29.2379C22.2206 29.1545 22.1513 29.066 22.0591 29.0584C21.8176 29.0374 21.5882 29.2086 21.4025 29.3371C21.3023 29.4065 21.3568 29.5821 21.4933 29.5408Z" fill="white"/>
<path d="M22.8063 29.1502C23.0928 29.1871 23.4938 29.091 23.5873 28.7971C23.6149 28.7105 23.5234 28.6246 23.4319 28.6501C23.3108 28.6838 23.2213 28.7601 23.1191 28.8282C23.0242 28.8912 22.9173 28.939 22.8063 28.9701C22.7208 28.9937 22.7033 29.1369 22.8063 29.1502Z" fill="white"/>
<path d="M24.1443 28.7704C24.258 28.7227 24.3777 28.6794 24.4961 28.6425C24.6037 28.6088 24.7268 28.5948 24.8177 28.5279C24.9105 28.4599 24.932 28.2747 24.7793 28.2524C24.488 28.2091 24.2082 28.4376 24.0346 28.6361C23.9673 28.7125 24.0494 28.8098 24.1443 28.7704Z" fill="white"/>
<path d="M12.3694 29.7163C12.5517 29.8919 12.7818 30.1401 13.0603 30.1458C13.135 30.1471 13.2003 30.072 13.176 30.0027C13.0879 29.7513 12.7758 29.6177 12.543 29.5037C12.4011 29.4337 12.2524 29.603 12.3694 29.7163Z" fill="white"/>
<path d="M13.5826 30.3307C13.7003 30.4917 13.9149 30.5675 14.1067 30.6247C14.2802 30.6769 14.55 30.7622 14.6866 30.6037C14.7222 30.5624 14.7316 30.5153 14.7054 30.4663C14.6152 30.3002 14.3784 30.3097 14.2076 30.2811C14.0206 30.2499 13.8228 30.1869 13.6324 30.2168C13.5813 30.2245 13.5544 30.2919 13.5826 30.3307Z" fill="white"/>
<path d="M15.2907 30.6883C15.5269 30.7952 15.8505 30.9779 16.1189 30.9136C16.2178 30.8901 16.2601 30.7577 16.1808 30.6909C15.9729 30.5159 15.6002 30.5337 15.3372 30.5254C15.249 30.5229 15.2067 30.6508 15.2907 30.6883Z" fill="white"/>
<path d="M17.0265 30.9531C17.2593 30.9601 17.7214 31.2235 17.8775 30.9403C17.9057 30.8888 17.895 30.8385 17.858 30.7959C17.7645 30.6877 17.5842 30.7093 17.451 30.7106C17.2902 30.7125 17.1563 30.7424 17.0016 30.7768C16.8953 30.8003 16.9222 30.9499 17.0265 30.9531Z" fill="white"/>
<path d="M18.6116 31.0018C18.8376 31.0254 19.1175 31.0998 19.3381 31.0368C19.4989 30.991 19.4989 30.7747 19.3381 30.7288C19.1175 30.6658 18.8376 30.7403 18.6116 30.7638C18.4495 30.7797 18.4488 30.9847 18.6116 31.0018Z" fill="white"/>
<path d="M19.9964 30.9526C20.1376 31.0258 20.3018 30.9946 20.4525 30.9653C20.6106 30.9348 20.7606 30.8921 20.8245 30.7407C20.844 30.6936 20.8097 30.6484 20.7734 30.6217C20.6429 30.5268 20.4659 30.5835 20.3267 30.6312C20.1894 30.6783 20.0455 30.7292 19.9681 30.8527C19.9473 30.8851 19.9594 30.9335 19.9964 30.9526Z" fill="white"/>
<path d="M21.4933 30.8542C21.7281 30.783 22.0302 30.7715 22.1681 30.5513C22.2206 30.468 22.1513 30.3795 22.0591 30.3719C21.8176 30.3509 21.5882 30.5221 21.4025 30.6506C21.3023 30.72 21.3568 30.8956 21.4933 30.8542Z" fill="white"/>
<path d="M22.8063 30.4647C23.0928 30.5016 23.4938 30.4055 23.5873 30.1115C23.6149 30.025 23.5234 29.9391 23.4319 29.9645C23.3108 29.9982 23.2213 30.0746 23.1191 30.1427C23.0242 30.2057 22.9173 30.2534 22.8063 30.2846C22.7208 30.3081 22.7033 30.4513 22.8063 30.4647Z" fill="white"/>
<path d="M24.1443 30.0839C24.258 30.0361 24.3777 29.9929 24.4961 29.956C24.6037 29.9222 24.7268 29.9082 24.8177 29.8414C24.9105 29.7733 24.932 29.5882 24.7793 29.5659C24.488 29.5226 24.2082 29.7511 24.0346 29.9496C23.9673 30.0266 24.0494 30.124 24.1443 30.0839Z" fill="white"/>
</svg>
