<svg width="18" height="18" viewBox="0 0 18 18" fill="none" xmlns="http://www.w3.org/2000/svg">
<g clip-path="url(#clip0_3413_12347)">
<path d="M8.99488 2.37262C5.07143 -1.059 0.0828168 1.95612 0.0010144 6.0436C-0.0198317 7.08531 0.280872 8.10002 0.879432 9.03549H4.75912L5.44919 7.88534C5.64956 7.55141 6.13447 7.54066 6.3462 7.87356L7.80216 10.1615L9.92448 5.6811C10.1096 5.29016 10.6612 5.27775 10.8653 5.65685L12.6846 9.03549H17.1103C20.3888 3.91151 13.9094 -1.92578 8.99488 2.37262Z" fill="#0364AD"/>
<path d="M11.9056 9.81299L10.4314 7.0752L8.34678 11.4761C8.16944 11.8505 7.64779 11.883 7.42537 11.5334L5.91482 9.15977L5.5101 9.83429C5.4148 9.99312 5.24318 10.0903 5.05796 10.0903H1.71387C1.8187 10.2 1.26 9.64243 8.62323 16.9675C8.82888 17.1721 9.16133 17.1722 9.36701 16.9675C16.6169 9.75513 16.1718 10.1998 16.2764 10.0903H12.3699C12.1759 10.0903 11.9976 9.9838 11.9056 9.81299Z" fill="#0364AD"/>
</g>
<defs>
<clipPath id="clip0_3413_12347">
<rect width="18" height="18" fill="white"/>
</clipPath>
</defs>
</svg>
