<svg width="14" height="22" viewBox="0 0 14 22" fill="none" xmlns="http://www.w3.org/2000/svg">
<path d="M13.3502 7.07129H12.5645V9.42845H13.3502V7.07129Z" fill="#0364AD"/>
<path d="M13.3502 11H12.5645V14.9156H13.3502V11Z" fill="#0364AD"/>
<path d="M8.64024 0H3.14021L2.35449 3.14288H9.42596L8.64024 0Z" fill="#0364AD"/>
<path d="M2.35449 18.8569L3.14021 21.9998H8.64024L9.42596 18.8569H2.35449Z" fill="#0364AD"/>
<path d="M9.42863 3.92871H2.35716C1.05532 3.92871 0 4.98403 0 6.28587V15.7145C0 17.0163 1.05532 18.0717 2.35716 18.0717H9.42863C10.7305 18.0717 11.7858 17.0163 11.7858 15.7145V6.28587C11.7858 4.98403 10.7305 3.92871 9.42863 3.92871ZM6.52932 8.36085C6.95214 8.11679 7.49271 8.26161 7.73678 8.68437C7.98084 9.10719 7.83607 9.64776 7.41326 9.89188C6.99044 10.1359 6.44987 9.99112 6.20576 9.56831C5.96169 9.14559 6.10651 8.60497 6.52932 8.36085ZM4.80929 8.2454C5.29751 8.2454 5.69322 8.64111 5.69322 9.12934C5.69322 9.61756 5.29751 10.0133 4.80929 10.0133C4.32106 10.0133 3.92535 9.61756 3.92535 9.12934C3.92535 8.64111 4.32116 8.2454 4.80929 8.2454ZM3.28892 11.7687C2.86611 11.5246 2.72134 10.984 2.9654 10.5612C3.20947 10.1384 3.75004 9.99363 4.17285 10.2377C4.59567 10.4818 4.74049 11.0223 4.49642 11.4451C4.25236 11.8679 3.71174 12.0128 3.28892 11.7687ZM5.25646 13.6395C4.83364 13.8836 4.29307 13.7388 4.04901 13.3159C3.80494 12.8931 3.94971 12.3526 4.37253 12.1085C4.79534 11.8644 5.33592 12.0092 5.58003 12.432C5.82409 12.8548 5.67927 13.3954 5.25646 13.6395ZM4.86164 11.0001C4.86164 10.4306 5.32334 9.96888 5.89289 9.96888C6.46244 9.96888 6.92415 10.4306 6.92415 11.0001C6.92415 11.5697 6.46244 12.0314 5.89289 12.0314C5.32334 12.0314 4.86164 11.5697 4.86164 11.0001ZM6.9765 13.755C6.48827 13.755 6.09256 13.3592 6.09256 12.871C6.09256 12.3828 6.48827 11.9871 6.9765 11.9871C7.46472 11.9871 7.86043 12.3828 7.86043 12.871C7.86043 13.3592 7.46467 13.755 6.9765 13.755ZM8.82038 11.4391C8.57632 11.8619 8.03574 12.0067 7.61293 11.7627C7.19011 11.5186 7.0453 10.978 7.28936 10.5552C7.53342 10.1324 8.07405 9.98759 8.49686 10.2317C8.91968 10.4757 9.06445 11.0163 8.82038 11.4391Z" fill="#0364AD"/>
</svg>
