<svg width="88" height="88" viewBox="0 0 88 88" fill="none" xmlns="http://www.w3.org/2000/svg">
<path d="M79.4019 88.0002C79.1499 88.0002 78.9005 87.9393 78.6694 87.8175L68.0387 82.1802L57.408 87.8175C56.8776 88.0982 56.2344 88.0532 55.7486 87.6957C55.2629 87.3409 55.0214 86.7372 55.1211 86.1414L57.1507 74.2023L48.5495 65.7477C48.1215 65.3267 47.9666 64.6938 48.1504 64.1193C48.3368 63.5447 48.8278 63.1237 49.4211 63.0389L61.3069 61.2966L66.6235 50.4352C66.8887 49.8924 67.4375 49.5508 68.0361 49.5508C68.6347 49.5508 69.1834 49.895 69.4486 50.4352L74.7653 61.2966L86.651 63.0389C87.2444 63.1263 87.738 63.5447 87.9218 64.1193C88.1082 64.6938 87.9533 65.3267 87.5227 65.7477L78.9215 74.2023L80.951 86.1414C81.0534 86.7372 80.8092 87.3409 80.3235 87.6957C80.0531 87.897 79.7275 88.0002 79.4019 88.0002ZM53.0339 65.7186L59.9416 72.5103C60.3118 72.8757 60.4825 73.4 60.3958 73.9163L58.7654 83.5068L67.3036 78.979C67.763 78.7354 68.3118 78.7354 68.7686 78.979L77.3068 83.5068L75.6763 73.9163C75.5897 73.4 75.7577 72.8757 76.1306 72.5103L83.0383 65.7186L73.4919 64.3205C72.9773 64.2463 72.5362 63.9207 72.3052 63.452L68.0361 54.7273L63.767 63.452C63.5386 63.9207 63.0948 64.2463 62.5802 64.3205L53.0339 65.7186Z" fill="#2B2D67"/>
<path d="M65.2977 33.2211C64.7227 33.2211 64.1923 32.9034 63.9166 32.395L60.9236 26.8769L55.452 23.8583C54.9479 23.5803 54.6328 23.0454 54.6328 22.4655C54.6328 21.8857 54.9479 21.3508 55.452 21.0728L60.9236 18.0542L63.9166 12.5361C64.1923 12.0277 64.7227 11.71 65.2977 11.71C65.8727 11.71 66.403 12.0277 66.6787 12.5361L69.6718 18.0542L75.1434 21.0728C75.6475 21.3508 75.9625 21.8857 75.9625 22.4655C75.9625 23.0454 75.6475 23.5803 75.1434 23.8583L69.6718 26.8769L66.6787 32.395C66.403 32.9034 65.8753 33.2211 65.2977 33.2211ZM59.49 22.4629L62.8402 24.3111C63.1054 24.4567 63.3207 24.6765 63.4677 24.9439L65.3003 28.3226L67.1329 24.9439C67.2773 24.6765 67.4952 24.4594 67.7578 24.3137L71.108 22.4655L67.7578 20.6173C67.4926 20.4717 67.2773 20.2519 67.1329 19.9871L65.3003 16.6085L63.4677 19.9871C63.3233 20.2546 63.1054 20.4717 62.8402 20.62L59.49 22.4629Z" fill="#2891E0"/>
<path d="M23.4544 75.3695C22.8794 75.3695 22.3491 75.0518 22.0734 74.5434L19.0803 69.0253L13.6087 66.0067C13.1046 65.7287 12.7896 65.1939 12.7896 64.614C12.7896 64.0341 13.1046 63.4992 13.6087 63.2212L19.0803 60.2027L22.0734 54.6845C22.3491 54.1761 22.8794 53.8584 23.4544 53.8584C24.0294 53.8584 24.5598 54.1761 24.8354 54.6845L27.8285 60.2027L33.3001 63.2212C33.8042 63.4992 34.1193 64.0341 34.1193 64.614C34.1193 65.1939 33.8042 65.7287 33.3001 66.0067L27.8285 69.0253L24.8354 74.5434C24.5598 75.0518 24.0294 75.3695 23.4544 75.3695ZM17.6441 64.6113L20.9943 66.4595C21.2595 66.6052 21.4748 66.8249 21.6192 67.0897L23.4518 70.4684L25.2844 67.0897C25.4288 66.8223 25.6467 66.6052 25.9119 66.4569L29.2621 64.6087L25.9119 62.7605C25.6467 62.6148 25.4314 62.3951 25.2844 62.1276L23.4518 58.749L21.6192 62.1276C21.4748 62.3951 21.2569 62.6122 20.9943 62.7605L17.6441 64.6113Z" fill="#2891E0"/>
<path d="M55.9451 57.0305C55.5407 57.0305 55.139 56.8743 54.8318 56.5645L22.6561 24.1151C22.0417 23.4955 22.0417 22.4893 22.6561 21.867C23.2705 21.2474 24.2682 21.2474 24.8825 21.867L57.0583 54.3165C57.6727 54.9361 57.6727 55.9422 57.0583 56.5645C56.7511 56.8743 56.3494 57.0305 55.9451 57.0305Z" fill="#2B2D67"/>
<path d="M18.2652 19.0314C17.8608 19.0314 17.4591 18.8752 17.1519 18.5654L1.43295 2.71272C0.818575 2.09313 0.818575 1.08694 1.43295 0.464698C2.04732 -0.154899 3.04502 -0.154899 3.65939 0.464698L19.3784 16.3174C19.9927 16.937 19.9927 17.9432 19.3784 18.5654C19.0738 18.8752 18.6695 19.0314 18.2652 19.0314Z" fill="#2B2D67"/>
<path d="M59.2698 39.309C58.8654 39.309 58.4637 39.1528 58.1566 38.843L52.6561 33.2957C52.0417 32.6761 52.0417 31.67 52.6561 31.0477C53.2705 30.4281 54.2682 30.4281 54.8825 31.0477L60.383 36.595C60.9974 37.2145 60.9974 38.2207 60.383 38.843C60.0784 39.1528 59.6741 39.309 59.2698 39.309Z" fill="#2B2D67"/>
<path d="M48.1704 28.1136C47.7661 28.1136 47.3644 27.9573 47.0572 27.6475L24.1522 4.54768C23.5378 3.92809 23.5378 2.9219 24.1522 2.29966C24.7666 1.68006 25.7643 1.68006 26.3786 2.29966L49.2837 25.3995C49.898 26.0191 49.898 27.0253 49.2837 27.6475C48.9765 27.96 48.5748 28.1136 48.1704 28.1136Z" fill="#2891E0"/>
<path d="M38.3713 60.3856C37.967 60.3856 37.5652 60.2294 37.2581 59.9196L20.6175 43.1375C20.0031 42.5179 20.0031 41.5117 20.6175 40.8895C21.2319 40.2699 22.2296 40.2699 22.844 40.8895L39.4845 57.6716C40.0989 58.2912 40.0989 59.2974 39.4845 59.9196C39.1773 60.2294 38.7756 60.3856 38.3713 60.3856Z" fill="#2B2D67"/>
<path d="M16.8519 38.6833C16.4476 38.6833 16.0459 38.527 15.7387 38.2172L0.460779 22.8094C-0.153593 22.1898 -0.153593 21.1836 0.460779 20.5614C1.07515 19.9418 2.07285 19.9418 2.68722 20.5614L17.9651 35.9692C18.5795 36.5888 18.5795 37.595 17.9651 38.2172C17.6579 38.527 17.2536 38.6833 16.8519 38.6833Z" fill="#2891E0"/>
<path d="M42.4572 85.5856C42.0528 85.5856 41.6511 85.4293 41.3439 85.1195L31.2147 74.9041C30.6003 74.2845 30.6003 73.2783 31.2147 72.6561C31.8291 72.0365 32.8268 72.0365 33.4411 72.6561L43.5704 82.8715C44.1848 83.4911 44.1848 84.4973 43.5704 85.1195C43.2632 85.432 42.8615 85.5856 42.4572 85.5856Z" fill="#2B2D67"/>
<path d="M15.1534 58.0507C14.7491 58.0507 14.3474 57.8945 14.0402 57.5847L1.23031 44.6658C0.615938 44.0462 0.615938 43.0401 1.23031 42.4178C1.84468 41.7982 2.84238 41.7982 3.45675 42.4178L16.2667 55.3367C16.881 55.9563 16.881 56.9625 16.2667 57.5847C15.9621 57.8945 15.5578 58.0507 15.1534 58.0507Z" fill="#2B2D67"/>
<path d="M83.7761 43.9185C83.3638 43.9185 82.9543 43.757 82.6445 43.434L72.6754 33.0544C72.0689 32.4242 72.0846 31.418 72.7095 30.809C73.3344 30.1974 74.3321 30.2159 74.9359 30.8434L84.905 41.223C85.5115 41.8532 85.4958 42.8594 84.8709 43.4684C84.5663 43.7703 84.1725 43.9185 83.7761 43.9185Z" fill="#2B2D67"/>
<path d="M56.9023 15.9463C56.4901 15.9463 56.0805 15.7848 55.7707 15.4617L49.816 9.26046C49.2095 8.63027 49.2252 7.62408 49.8501 7.01508C50.475 6.40342 51.4727 6.41931 52.0766 7.0495L58.0339 13.2508C58.6404 13.881 58.6246 14.8871 57.9997 15.4961C57.6925 15.7954 57.2987 15.9463 56.9023 15.9463Z" fill="#2B2D67"/>
<path d="M46.8099 5.66822C46.4055 5.66822 46.0038 5.512 45.6966 5.2022L43.4334 2.91975C42.8191 2.30016 42.8191 1.29397 43.4334 0.671729C44.0478 0.052132 45.0455 0.052132 45.6625 0.671729L47.9257 2.95418C48.5401 3.57377 48.5401 4.57996 47.9257 5.2022C47.6159 5.512 47.2142 5.66822 46.8099 5.66822Z" fill="#2B2D67"/>
</svg>
