<svg width="21" height="14" viewBox="0 0 21 14" fill="none" xmlns="http://www.w3.org/2000/svg">
<path d="M20.9998 0H0V14H20.9998V0Z" fill="#F0F0F0"/>
<path d="M20.9998 1.74951H0V3.49934H20.9998V1.74951Z" fill="#D80027"/>
<path d="M20.9998 5.25H0V6.99983H20.9998V5.25Z" fill="#D80027"/>
<path d="M20.9998 8.74951H0V10.4993H20.9998V8.74951Z" fill="#D80027"/>
<path d="M20.9998 12.2495H0V13.9993H20.9998V12.2495Z" fill="#D80027"/>
<path d="M10.4999 0H0V7.53847H10.4999V0Z" fill="#2E52B2"/>
<path d="M4.08962 3.08789L3.92051 3.60813H3.37354L3.81613 3.92948L3.64702 4.44968L4.08962 4.12832L4.53193 4.44968L4.36286 3.92948L4.80546 3.60813H4.25844L4.08962 3.08789Z" fill="#F0F0F0"/>
<path d="M4.25844 5.48602L4.08962 4.96582L3.92051 5.48602H3.37354L3.81613 5.80741L3.64702 6.32761L4.08962 6.00621L4.53193 6.32761L4.36286 5.80741L4.80546 5.48602H4.25844Z" fill="#F0F0F0"/>
<path d="M1.95135 5.48602L1.78249 4.96582L1.61338 5.48602H1.06641L1.509 5.80741L1.3399 6.32761L1.78249 6.00621L2.22484 6.32761L2.05577 5.80741L2.49829 5.48602H1.95135Z" fill="#F0F0F0"/>
<path d="M1.78249 3.08789L1.61338 3.60813H1.06641L1.509 3.92948L1.3399 4.44968L1.78249 4.12832L2.22484 4.44968L2.05577 3.92948L2.49829 3.60813H1.95135L1.78249 3.08789Z" fill="#F0F0F0"/>
<path d="M4.08962 1.21094L3.92051 1.73121H3.37354L3.81613 2.05261L3.64702 2.5728L4.08962 2.2514L4.53193 2.5728L4.36286 2.05261L4.80546 1.73121H4.25844L4.08962 1.21094Z" fill="#F0F0F0"/>
<path d="M1.78249 1.21094L1.61338 1.73121H1.06641L1.509 2.05261L1.3399 2.5728L1.78249 2.2514L2.22484 2.5728L2.05577 2.05261L2.49829 1.73121H1.95135L1.78249 1.21094Z" fill="#F0F0F0"/>
<path d="M6.40354 3.08789L6.23448 3.60813H5.6875L6.13005 3.92948L5.96103 4.44968L6.40354 4.12832L6.84593 4.44968L6.67683 3.92948L7.11942 3.60813H6.57244L6.40354 3.08789Z" fill="#F0F0F0"/>
<path d="M6.57244 5.48602L6.40354 4.96582L6.23448 5.48602H5.6875L6.13005 5.80741L5.96103 6.32761L6.40354 6.00621L6.84593 6.32761L6.67683 5.80741L7.11942 5.48602H6.57244Z" fill="#F0F0F0"/>
<path d="M8.88637 5.48602L8.71751 4.96582L8.5484 5.48602H8.00146L8.44398 5.80741L8.27491 6.32761L8.71751 6.00621L9.15986 6.32761L8.99075 5.80741L9.43335 5.48602H8.88637Z" fill="#F0F0F0"/>
<path d="M8.71751 3.08789L8.5484 3.60813H8.00146L8.44398 3.92948L8.27491 4.44968L8.71751 4.12832L9.15986 4.44968L8.99075 3.92948L9.43335 3.60813H8.88637L8.71751 3.08789Z" fill="#F0F0F0"/>
<path d="M6.40354 1.21094L6.23448 1.73121H5.6875L6.13005 2.05261L5.96103 2.5728L6.40354 2.2514L6.84593 2.5728L6.67683 2.05261L7.11942 1.73121H6.57244L6.40354 1.21094Z" fill="#F0F0F0"/>
<path d="M8.71751 1.21094L8.5484 1.73121H8.00146L8.44398 2.05261L8.27491 2.5728L8.71751 2.2514L9.15986 2.5728L8.99075 2.05261L9.43335 1.73121H8.88637L8.71751 1.21094Z" fill="#F0F0F0"/>
</svg>
