<svg width="14" height="14" viewBox="0 0 14 14" fill="none" xmlns="http://www.w3.org/2000/svg">
<path d="M9.90801 12.4892L9.7124 13.2888C9.12555 13.5204 8.65678 13.6967 8.30771 13.8179C7.95827 13.9395 7.55224 14 7.08961 14C6.37918 14 5.82659 13.826 5.43248 13.4803C5.03837 13.1332 4.84125 12.6934 4.84125 12.1599C4.84125 11.9534 4.85555 11.741 4.88529 11.5245C4.91528 11.3078 4.96296 11.0638 5.0282 10.791L5.7616 8.1952C5.82685 7.94664 5.8823 7.71112 5.92672 7.48841C5.97177 7.26707 5.99347 7.06343 5.99347 6.88011C5.99347 6.54861 5.92484 6.31673 5.7882 6.18636C5.65156 6.05637 5.39082 5.99037 5.00374 5.99037C4.81415 5.99037 4.61928 6.02074 4.42066 6.07946C4.22116 6.13843 4.05064 6.1954 3.90747 6.24835L4.10359 5.44808C4.58403 5.25246 5.04326 5.08495 5.48254 4.94593C5.92183 4.80653 6.3369 4.73676 6.7295 4.73676C7.43504 4.73676 7.97948 4.90728 8.36179 5.24832C8.74411 5.58961 8.93521 6.03203 8.93521 6.57722C8.93521 6.69002 8.92266 6.88877 8.89569 7.17284C8.86934 7.45754 8.82028 7.7184 8.74876 7.95567L8.0185 10.5411C7.95865 10.7487 7.90482 10.9861 7.85802 11.2533C7.80971 11.5186 7.78662 11.7214 7.78662 11.8574C7.78662 12.2007 7.86316 12.4351 8.01662 12.5597C8.1712 12.6843 8.43745 12.7463 8.81563 12.7463C8.99318 12.7463 9.19519 12.7148 9.41966 12.6529C9.64351 12.5911 9.80675 12.5367 9.90801 12.4892ZM10.0932 1.63492C10.0932 2.08538 9.92344 2.47008 9.58228 2.7864C9.24199 3.10385 8.83195 3.2627 8.35226 3.2627C7.87107 3.2627 7.46001 3.10385 7.11584 2.7864C6.77229 2.46995 6.60014 2.08538 6.60014 1.63492C6.60014 1.18535 6.77229 0.800021 7.11584 0.479687C7.45939 0.159854 7.87119 0 8.35226 0C8.83182 0 9.24199 0.16023 9.58228 0.479687C9.92369 0.800021 10.0932 1.18548 10.0932 1.63492Z" fill="#028FC5"/>
</svg>
