<svg width="20" height="18" viewBox="0 0 20 18" fill="none" xmlns="http://www.w3.org/2000/svg">
<path d="M16.5528 5.34377H13.7888L14.4553 2.67446C14.5866 2.14857 14.5148 1.59244 14.2543 1.11726C13.9938 0.642075 13.5638 0.282866 13.0502 0.111455L13.0477 0.110604C12.6005 -0.0388285 12.1167 -0.0367901 11.6708 0.116405C11.2249 0.2696 10.8417 0.56544 10.5803 0.958294L9.19256 3.04264L5.74535 6.49434H5.4266C5.22659 6.14544 4.93835 5.85543 4.59089 5.65345C4.24343 5.45148 3.84898 5.34467 3.44721 5.34377H2.29814C1.68864 5.34377 1.10409 5.58621 0.67311 6.01776C0.242125 6.4493 0 7.03461 0 7.6449V15.6989C0 16.3092 0.242125 16.8945 0.67311 17.326C1.10409 17.7576 1.68864 18 2.29814 18H3.44721C3.81356 17.9997 4.17448 17.9114 4.49972 17.7426C4.82496 17.5738 5.10502 17.3293 5.31642 17.0297L9.19256 18H15.5082C16.3155 18 17.0972 17.7163 17.717 17.1983C18.3368 16.6804 18.7554 15.961 18.8998 15.1657L19.9444 9.41289C20.0347 8.91547 20.0148 8.40426 19.8861 7.91539C19.7573 7.42653 19.5229 6.97195 19.1994 6.5838C18.8759 6.19564 18.4711 5.88339 18.0138 5.66912C17.5565 5.45484 17.0577 5.34377 16.5528 5.34377ZM3.44721 16.8494H2.29814C1.9935 16.8491 1.70143 16.7278 1.48601 16.5121C1.2706 16.2964 1.14942 16.0039 1.14907 15.6989V7.6449C1.14942 7.33986 1.2706 7.04741 1.48601 6.83172C1.70143 6.61602 1.9935 6.49469 2.29814 6.49434H3.44721C3.75186 6.49469 4.04392 6.61602 4.25934 6.83172C4.47476 7.04741 4.59593 7.33986 4.59628 7.6449V15.6989C4.59593 16.0039 4.47476 16.2964 4.25934 16.5121C4.04392 16.7278 3.75186 16.8491 3.44721 16.8494ZM18.8139 9.20706L17.7693 14.9599C17.6732 15.4902 17.3942 15.9699 16.9809 16.3152C16.5677 16.6606 16.0464 16.8496 15.5082 16.8494H9.33402L5.74535 15.9511V7.6449H6.22135L6.55785 7.30789L10.0051 3.85619L10.0856 3.77565L10.1486 3.68086L11.5364 1.59649C11.6674 1.40028 11.8633 1.25662 12.0896 1.1908C12.316 1.12499 12.5583 1.14124 12.7738 1.23669C12.9894 1.33214 13.1644 1.50067 13.2681 1.71262C13.3717 1.92457 13.3974 2.16634 13.3405 2.39538L12.6741 5.06469L12.3172 6.49434H16.5528C16.8894 6.49433 17.2219 6.56837 17.5268 6.71121C17.8317 6.85406 18.1015 7.06222 18.3172 7.32099C18.5329 7.57976 18.6892 7.88282 18.775 8.20873C18.8608 8.53464 18.8741 8.87545 18.8139 9.20706Z" fill="#52A9EB"/>
</svg>
