<svg width="18" height="18" viewBox="0 0 18 18" fill="none" xmlns="http://www.w3.org/2000/svg">
<path d="M17.8292 9.72031C18.0569 9.26925 18.0569 8.73072 17.8292 8.27967L17.5934 7.81258C17.542 7.71076 17.524 7.59737 17.5414 7.48461L17.6213 6.96753C17.6985 6.4682 17.5321 5.956 17.1761 5.59741L16.8076 5.22606C16.7272 5.14509 16.6751 5.04278 16.6568 4.93016L16.5731 4.41368C16.493 3.92046 16.1826 3.48892 15.7412 3.25599L15.2877 2.98854C15.2789 2.98337 15.27 2.97845 15.261 2.97381C15.1595 2.92166 15.0783 2.84048 15.0262 2.73901L14.7869 2.27372C14.5613 1.83493 14.1012 1.51045 13.5863 1.42691L13.0698 1.34316C12.9572 1.32488 12.8549 1.27277 12.7739 1.19243L12.4026 0.823791C12.044 0.46784 11.5319 0.301538 11.0325 0.378606L10.5154 0.458523C10.4026 0.475962 10.2892 0.457996 10.1874 0.406593L9.7203 0.170781C9.26928 -0.0569094 8.73075 -0.0569446 8.27972 0.170781L7.8126 0.406593C7.71081 0.457961 7.59746 0.475892 7.48464 0.458558L6.96755 0.378642C6.46812 0.301397 5.95602 0.467875 5.59744 0.823826L5.22605 1.1924C5.14511 1.27277 5.0428 1.32488 4.93019 1.34316L4.41366 1.42691C3.89872 1.51045 3.43867 1.8349 3.21305 2.27372L2.97379 2.73901C2.92162 2.84045 2.84043 2.92166 2.73897 2.97381L2.27363 3.2131C1.83485 3.43871 1.51037 3.89877 1.42686 4.41371L1.34308 4.93023C1.32483 5.04285 1.27269 5.14513 1.19232 5.2261L0.823778 5.59745C0.467827 5.95604 0.301419 6.4682 0.378593 6.96753L0.458545 7.48465C0.475984 7.59737 0.458018 7.71076 0.40658 7.81258L0.170768 8.27967C-0.0569226 8.73069 -0.0569226 9.26922 0.170768 9.72027L0.40658 10.1874C0.457983 10.2892 0.475949 10.4026 0.458545 10.5153L0.378593 11.0324C0.301419 11.5318 0.467862 12.0439 0.823778 12.4025L1.19239 12.7739C1.27276 12.8549 1.3249 12.9572 1.34315 13.0698L1.42693 13.5863C1.51044 14.1012 1.83492 14.5613 2.2737 14.7869L2.739 15.0262C2.84047 15.0783 2.92165 15.1595 2.97383 15.261L3.21309 15.7263C3.43874 16.1651 3.89879 16.4896 4.41373 16.5731L4.93022 16.6569C5.04284 16.6752 5.14515 16.7273 5.22609 16.8076L5.59747 17.1763C5.95613 17.5322 6.46826 17.6985 6.96755 17.6214L7.48467 17.5415C7.59736 17.524 7.71081 17.542 7.8126 17.5934L8.27972 17.8292C8.50523 17.9431 8.75261 18 8.99999 18C9.24741 18 9.49479 17.9431 9.7203 17.8292L10.1874 17.5934C10.2892 17.542 10.4027 17.5241 10.5154 17.5415L11.0324 17.6214C11.5318 17.6985 12.0439 17.5321 12.4026 17.1762L12.7739 16.8076C12.8548 16.7272 12.9572 16.6751 13.0698 16.6568L13.5863 16.573C14.0795 16.493 14.511 16.1826 14.744 15.7412L15.0114 15.2877C15.0166 15.2789 15.0215 15.27 15.0262 15.2609C15.0783 15.1595 15.1595 15.0783 15.261 15.0261L15.7262 14.7869C16.1756 14.5558 16.4922 14.1202 16.5731 13.6214L16.6568 13.1049C16.6751 12.9923 16.7272 12.89 16.8076 12.809C16.8132 12.8034 17.1854 12.3932 17.1854 12.3932C17.535 12.035 17.6979 11.5274 17.6213 11.0324L17.5414 10.5154C17.524 10.4026 17.5419 10.2892 17.5933 10.1874L17.8292 9.72031Z" fill="#0364AD"/>
<path d="M9.00052 2.63672C5.50672 2.63672 2.63672 5.5075 2.63672 9.00052C2.63672 12.4943 5.5075 15.3643 9.00052 15.3643C12.4943 15.3643 15.3643 12.4935 15.3643 9.00052C15.3643 5.50672 12.4935 2.63672 9.00052 2.63672ZM12.6765 7.54627L11.6217 11.7654C11.563 12.0001 11.3521 12.1648 11.1101 12.1648H6.89097C6.64897 12.1648 6.43802 12.0001 6.37934 11.7654L5.32456 7.54627C5.26244 7.29773 5.38792 7.04047 5.62204 6.9364C5.85613 6.83236 6.13118 6.91164 6.27403 7.12432C6.41836 7.33647 6.94044 7.94574 7.41836 7.94574C7.50569 7.94574 7.77628 7.74245 8.05502 7.11402C8.30511 6.55024 8.47313 5.82481 8.47313 5.30881C8.47313 5.01755 8.70926 4.78142 9.00052 4.78142C9.29178 4.78142 9.5279 5.01755 9.5279 5.30881C9.5279 5.82481 9.69593 6.55024 9.94602 7.11402C10.2248 7.74245 10.4953 7.94574 10.5827 7.94574C11.0748 7.94574 11.6105 7.29783 11.727 7.12432C11.8699 6.91168 12.1449 6.8324 12.379 6.9364C12.6131 7.04047 12.7386 7.29773 12.6765 7.54627Z" fill="white"/>
</svg>
