<svg width="18" height="18" viewBox="0 0 18 18" fill="none" xmlns="http://www.w3.org/2000/svg">
<path d="M2.53125 4.21875C3.36719 4.21875 4.05929 3.6103 4.19345 2.8125H7.47729L7.11364 3.17615L7.51135 3.57385L8.55395 2.53125L7.51135 1.48865L7.11365 1.88635L7.47729 2.25H4.19345C4.05929 1.4522 3.36719 0.84375 2.53125 0.84375C1.59927 0.84375 0.84375 1.59927 0.84375 2.53125C0.84375 3.46323 1.59927 4.21875 2.53125 4.21875Z" fill="#0364AD"/>
<path d="M13.9216 2.25H12.0682C11.934 1.4522 11.2419 0.84375 10.406 0.84375C9.47402 0.84375 8.71851 1.59927 8.71851 2.53125C8.71851 3.46323 9.47402 4.21875 10.406 4.21875C11.2419 4.21875 11.934 3.6103 12.0682 2.8125H13.9216C15.5501 2.8125 16.8748 4.13731 16.8748 5.76562C16.8748 7.39394 15.5501 8.71875 13.9216 8.71875H9.39746L9.76111 8.3551L9.3634 7.9574L8.3208 9L9.3634 10.0426L9.76111 9.6449L9.39746 9.28125H13.9216C15.8602 9.28125 17.4373 7.70416 17.4373 5.76562C17.4373 3.82709 15.8602 2.25 13.9216 2.25Z" fill="#0364AD"/>
<path d="M15.4688 17.1562C16.4007 17.1562 17.1562 16.4007 17.1562 15.4688C17.1562 14.5368 16.4007 13.7812 15.4688 13.7812C14.5368 13.7812 13.7812 14.5368 13.7812 15.4688C13.7812 16.4007 14.5368 17.1562 15.4688 17.1562Z" fill="#0364AD"/>
<path d="M7.59375 13.7812C6.66177 13.7812 5.90625 14.5368 5.90625 15.4688C5.90625 16.4007 6.66177 17.1562 7.59375 17.1562C8.42969 17.1562 9.12179 16.5478 9.25595 15.75H12.5398L12.1761 16.1136L12.5738 16.5114L13.6165 15.4688L12.5739 14.4261L12.1761 14.8239L12.5398 15.1875H9.25595C9.12179 14.3897 8.42969 13.7812 7.59375 13.7812Z" fill="#0364AD"/>
<path d="M4.07812 15.75H4.6648L4.30115 16.1136L4.69885 16.5114L5.74145 15.4688L4.69885 14.4261L4.30115 14.8239L4.6648 15.1875H4.07812C2.44968 15.1875 1.125 13.8627 1.125 12.2344C1.125 10.6061 2.44968 9.28125 4.07812 9.28125H4.80655C4.94071 10.079 5.63281 10.6875 6.46875 10.6875C7.40073 10.6875 8.15625 9.93198 8.15625 9C8.15625 8.06802 7.40073 7.3125 6.46875 7.3125C5.63281 7.3125 4.94071 7.92095 4.80655 8.71875H4.07812C2.13959 8.71875 0.5625 10.2958 0.5625 12.2344C0.5625 14.1729 2.13959 15.75 4.07812 15.75Z" fill="#0364AD"/>
</svg>
