<svg width="18" height="18" viewBox="0 0 18 18" fill="none" xmlns="http://www.w3.org/2000/svg">
<path d="M5.50353 2.44405L5.25584 2.19677L5.50353 2.44405C5.72371 2.2235 6.02221 2.09971 6.33333 2.09971C6.56536 2.09971 6.79222 2.16863 6.98524 2.29781C7.17826 2.427 7.3288 2.61069 7.41771 2.82571C7.50663 3.04074 7.5299 3.27739 7.48457 3.5057C7.43923 3.734 7.32734 3.94364 7.16313 4.10812C6.99894 4.27259 6.78981 4.38454 6.56222 4.42988C6.33464 4.47523 6.09874 4.45196 5.88433 4.363C5.66991 4.27403 5.48655 4.12334 5.3575 3.92987C5.22844 3.7364 5.15952 3.50888 5.15952 3.27609C5.15952 2.9639 5.28334 2.66462 5.50353 2.44405ZM1.38095 4.00768H3.8048C3.95049 4.50358 4.23918 4.94809 4.63779 5.2835C5.11262 5.68306 5.713 5.90217 6.33333 5.90217C6.95366 5.90217 7.55404 5.68306 8.02888 5.2835C8.42749 4.94809 8.71618 4.50358 8.86187 4.00768H16.619C16.8131 4.00768 16.9991 3.93046 17.1361 3.79319C17.2731 3.65595 17.35 3.46993 17.35 3.27609C17.35 3.08225 17.2731 2.89623 17.1361 2.75898C16.9991 2.62171 16.8131 2.54449 16.619 2.54449H8.86187C8.71618 2.0486 8.42749 1.60408 8.02888 1.26867C7.55404 0.869113 6.95366 0.65 6.33333 0.65C5.713 0.65 5.11262 0.869113 4.63779 1.26867C4.23918 1.60408 3.95049 2.0486 3.8048 2.54449H1.38095C1.1869 2.54449 1.00092 2.62171 0.863883 2.75898C0.726868 2.89622 0.65 3.08224 0.65 3.27609C0.65 3.46993 0.726868 3.65595 0.863883 3.79319C1.00092 3.93046 1.1869 4.00768 1.38095 4.00768ZM16.619 8.26841H14.1952C14.0495 7.77251 13.7608 7.328 13.3622 6.99259C12.8874 6.59303 12.287 6.37392 11.6667 6.37392C11.0463 6.37392 10.446 6.59303 9.97112 6.99259C9.57252 7.328 9.28382 7.77251 9.13813 8.26841H1.38095C1.1869 8.26841 1.00092 8.34563 0.863883 8.48289C0.726868 8.62014 0.65 8.80616 0.65 9C0.65 9.19384 0.726868 9.37986 0.863883 9.51711C1.00092 9.65437 1.1869 9.7316 1.38095 9.7316H9.13813C9.28382 10.2275 9.57252 10.672 9.97112 11.0074C10.446 11.407 11.0463 11.6261 11.6667 11.6261C12.287 11.6261 12.8874 11.407 13.3622 11.0074C13.7608 10.672 14.0495 10.2275 14.1952 9.7316H16.619C16.8131 9.7316 16.9991 9.65437 17.1361 9.51711C17.2731 9.37986 17.35 9.19384 17.35 9C17.35 8.80616 17.2731 8.62014 17.1361 8.48289C16.9991 8.34563 16.8131 8.26841 16.619 8.26841ZM11.6667 10.1764C11.4346 10.1764 11.2078 10.1075 11.0148 9.97827C10.8217 9.84908 10.6712 9.66539 10.5823 9.45037C10.4934 9.23535 10.4701 8.9987 10.5154 8.77039C10.5608 8.54208 10.6727 8.33245 10.8369 8.16797C11.0011 8.00349 11.2102 7.89155 11.4378 7.8462C11.6654 7.80086 11.9013 7.82413 12.1157 7.91309C12.3301 8.00205 12.5135 8.15275 12.6425 8.34621C12.7716 8.53968 12.8405 8.7672 12.8405 9C12.8405 9.31219 12.7167 9.61146 12.4965 9.83203C12.2763 10.0526 11.9778 10.1764 11.6667 10.1764ZM16.619 13.9923H8.86187C8.71618 13.4964 8.42748 13.0519 8.02888 12.7165C7.55404 12.3169 6.95366 12.0978 6.33333 12.0978C5.713 12.0978 5.11262 12.3169 4.63779 12.7165C4.23918 13.0519 3.95049 13.4964 3.8048 13.9923H1.38095C1.1869 13.9923 1.00092 14.0695 0.863883 14.2068C0.726868 14.3441 0.65 14.5301 0.65 14.7239C0.65 14.9178 0.726867 15.1038 0.863883 15.241C1.00092 15.3783 1.1869 15.4555 1.38095 15.4555H3.8048C3.95049 15.9514 4.23918 16.3959 4.63779 16.7313C5.11262 17.1309 5.71301 17.35 6.33333 17.35C6.95366 17.35 7.55404 17.1309 8.02888 16.7313C8.42748 16.3959 8.71618 15.9514 8.86187 15.4555H16.619C16.8131 15.4555 16.9991 15.3783 17.1361 15.241C17.2731 15.1038 17.35 14.9178 17.35 14.7239C17.35 14.5301 17.2731 14.3441 17.1361 14.2068C16.9991 14.0695 16.8131 13.9923 16.619 13.9923ZM6.33333 15.9003C6.10131 15.9003 5.87444 15.8314 5.68143 15.7022C5.4884 15.573 5.33787 15.3893 5.24895 15.1743C5.16004 14.9593 5.13676 14.7226 5.1821 14.4943C5.22744 14.266 5.33933 14.0564 5.50353 13.8919C5.66773 13.7274 5.87686 13.6155 6.10445 13.5701C6.33203 13.5248 6.56793 13.548 6.78234 13.637C6.99676 13.726 7.18012 13.8767 7.30917 14.0701C7.43822 14.2636 7.50714 14.4911 7.50714 14.7239C7.50714 15.0361 7.38333 15.3354 7.16313 15.5559C6.94296 15.7765 6.64446 15.9003 6.33333 15.9003Z" fill="#147CCB" stroke="#147CCB" stroke-width="0.7"/>
</svg>
