<svg width="20" height="20" viewBox="0 0 20 20" fill="none" xmlns="http://www.w3.org/2000/svg">
<g clip-path="url(#clip0_3413_11304)">
<path d="M6.95751 12.3734L6.51061 12.1492C6.50995 12.1505 6.50787 12.1535 6.50363 12.1561C6.50297 12.1565 6.50237 12.1568 6.50184 12.1571C6.50175 12.1571 6.50167 12.1571 6.50159 12.157V11.1668C6.50159 7.85896 9.19371 5.16684 12.5015 5.16684H12.6681H13.1681V4.66684V2.50026C13.1682 2.50018 13.1682 2.50011 13.1683 2.50004L17.5005 6.99878C17.5005 6.99884 17.5006 6.99889 17.5006 6.99894C17.501 6.99934 17.5012 6.99963 17.5014 6.99981C17.5013 6.99987 17.5013 6.99994 17.5012 7.00001C17.5012 7.00002 17.5012 7.00004 17.5011 7.00005L13.1682 11.4996L13.1681 11.4995V9.33341V8.83341H12.6681H11.8762C9.59014 8.83341 7.53234 10.1051 6.51027 12.1499L6.95751 12.3734ZM6.95751 12.3734C7.89488 10.4981 9.7795 9.33341 11.8762 9.33341H12.1681M6.95751 12.3734C6.87023 12.5474 6.68957 12.6581 6.50085 12.6581C6.46423 12.6581 6.42761 12.654 6.39086 12.6448C6.16492 12.592 6.00159 12.3987 6.00159 12.1668V11.1668C6.00159 7.58282 8.91757 4.66684 12.5015 4.66684L12.1681 9.33341M12.1681 9.33341H12.6681V9.83341V11.5C12.6681 11.7041 12.7922 11.8875 12.9815 11.9634L12.1681 9.33341ZM13.1682 2.49995L13.1682 2.49988L13.1682 2.4999L13.1682 2.49995ZM17.5015 6.99996C17.5015 6.99992 17.5015 6.99988 17.5015 6.99983C17.5018 6.99923 17.502 6.99915 17.5014 6.99978C17.5014 6.99975 17.5014 6.99978 17.5014 6.99986C17.5014 6.9999 17.5015 6.99993 17.5015 6.99996Z" fill="#E89133" stroke="white"/>
<path d="M15.9991 18.0001H3.99924C2.8966 18.0001 1.99927 17.1029 1.99927 16.0001V6.66697C1.99927 5.56432 2.8966 4.66699 3.99924 4.66699H5.99922C6.36786 4.66699 6.66583 4.96496 6.66583 5.33361C6.66583 5.70226 6.36786 6.00023 5.99922 6.00023H3.99924C3.6312 6.00023 3.3325 6.29893 3.3325 6.66697V16.0001C3.3325 16.3682 3.6312 16.6669 3.99924 16.6669H15.9991C16.367 16.6669 16.6657 16.3682 16.6657 16.0001V10.6669C16.6657 10.2983 16.9637 10.0002 17.3323 10.0002C17.7011 10.0002 17.9991 10.2983 17.9991 10.6669V16.0001C17.9991 17.1029 17.1017 18.0001 15.9991 18.0001Z" fill="#E89133"/>
</g>
<defs>
<clipPath id="clip0_3413_11304">
<rect width="16" height="16" fill="white" transform="translate(2 2)"/>
</clipPath>
</defs>
</svg>
