<svg width="32" height="32" viewBox="0 0 32 32" fill="none" xmlns="http://www.w3.org/2000/svg">
<path d="M25.7139 10.2852H24.571V13.7137H25.7139V10.2852Z" fill="#707070"/>
<path d="M25.7139 16H24.571V21.6954H25.7139V16Z" fill="#707070"/>
<path d="M18.857 0H10.857L9.71411 4.57143H19.9998L18.857 0Z" fill="#707070"/>
<path d="M9.71411 27.4287L10.857 32.0001H18.857L19.9998 27.4287H9.71411Z" fill="#707070"/>
<path d="M20.0002 5.71387H9.71446C7.82089 5.71387 6.28589 7.24887 6.28589 9.14244V22.8567C6.28589 24.7503 7.82089 26.2853 9.71446 26.2853H20.0002C21.8937 26.2853 23.4287 24.7503 23.4287 22.8567V9.14244C23.4287 7.24887 21.8937 5.71387 20.0002 5.71387ZM15.783 12.1606C16.398 11.8056 17.1843 12.0162 17.5393 12.6312C17.8943 13.2462 17.6837 14.0324 17.0687 14.3875C16.4537 14.7425 15.6675 14.5319 15.3124 13.9169C14.9574 13.302 15.168 12.5157 15.783 12.1606ZM13.2812 11.9927C13.9913 11.9927 14.5669 12.5682 14.5669 13.2784C14.5669 13.9885 13.9913 14.5641 13.2812 14.5641C12.571 14.5641 11.9955 13.9885 11.9955 13.2784C11.9955 12.5682 12.5712 11.9927 13.2812 11.9927ZM11.0697 17.1174C10.4547 16.7624 10.2442 15.9761 10.5992 15.3611C10.9542 14.7461 11.7405 14.5355 12.3555 14.8905C12.9705 15.2455 13.1811 16.0318 12.8261 16.6468C12.4711 17.2617 11.6847 17.4724 11.0697 17.1174ZM13.9316 19.8386C13.3166 20.1936 12.5303 19.9829 12.1753 19.3679C11.8203 18.7529 12.0309 17.9667 12.6459 17.6117C13.2609 17.2567 14.0472 17.4672 14.4022 18.0822C14.7572 18.6972 14.5466 19.4835 13.9316 19.8386ZM13.3573 15.9995C13.3573 15.1711 14.0289 14.4995 14.8573 14.4995C15.6857 14.4995 16.3573 15.1711 16.3573 15.9995C16.3573 16.8279 15.6857 17.4995 14.8573 17.4995C14.0289 17.4995 13.3573 16.828 13.3573 15.9995ZM16.4335 20.0065C15.7233 20.0065 15.1477 19.4309 15.1477 18.7208C15.1477 18.0107 15.7233 17.4351 16.4335 17.4351C17.1436 17.4351 17.7192 18.0107 17.7192 18.7208C17.7192 19.4308 17.1435 20.0065 16.4335 20.0065ZM19.1155 16.638C18.7605 17.253 17.9742 17.4637 17.3592 17.1087C16.7442 16.7537 16.5335 15.9673 16.8885 15.3523C17.2435 14.7373 18.0299 14.5267 18.6449 14.8817C19.2599 15.2367 19.4705 16.0231 19.1155 16.638Z" fill="#707070"/>
</svg>