<svg width="20" height="19" viewBox="0 0 20 19" fill="none" xmlns="http://www.w3.org/2000/svg">
<path d="M9.96094 0C4.46836 0 0 3.9425 0 8.78906C0 10.8364 0.810234 12.8202 2.2848 14.3927C2.57664 15.596 2.22242 16.8709 1.34352 17.7498C0.976016 18.1173 1.2359 18.75 1.75781 18.75C3.4275 18.75 5.03711 18.096 6.23301 16.9424C7.41633 17.3647 8.66832 17.5781 9.96094 17.5781C15.4535 17.5781 20 13.6356 20 8.78906C20 3.9425 15.4535 0 9.96094 0ZM5.35156 10.5469C4.38227 10.5469 3.59375 9.75836 3.59375 8.78906C3.59375 7.81977 4.38227 7.03125 5.35156 7.03125C6.32086 7.03125 7.10938 7.81977 7.10938 8.78906C7.10938 9.75836 6.32086 10.5469 5.35156 10.5469ZM10.0391 10.5469C9.06977 10.5469 8.28125 9.75836 8.28125 8.78906C8.28125 7.81977 9.06977 7.03125 10.0391 7.03125C11.0084 7.03125 11.7969 7.81977 11.7969 8.78906C11.7969 9.75836 11.0084 10.5469 10.0391 10.5469ZM14.7266 10.5469C13.7573 10.5469 12.9688 9.75836 12.9688 8.78906C12.9688 7.81977 13.7573 7.03125 14.7266 7.03125C15.6959 7.03125 16.4844 7.81977 16.4844 8.78906C16.4844 9.75836 15.6959 10.5469 14.7266 10.5469Z" fill="#52A9EB"/>
</svg>
