<svg width="20" height="18" viewBox="0 0 20 18" fill="none" xmlns="http://www.w3.org/2000/svg">
<path d="M16.5528 12.6562H13.7888L14.4553 15.3255C14.5866 15.8514 14.5148 16.4076 14.2543 16.8827C13.9938 17.3579 13.5638 17.7171 13.0502 17.8885L13.0477 17.8894C12.6005 18.0388 12.1167 18.0368 11.6708 17.8836C11.2249 17.7304 10.8417 17.4346 10.5803 17.0417L9.19256 14.9574L5.74535 11.5057H5.4266C5.22659 11.8546 4.93835 12.1446 4.59089 12.3465C4.24343 12.5485 3.84898 12.6553 3.44721 12.6562H2.29814C1.68864 12.6562 1.10409 12.4138 0.67311 11.9822C0.242125 11.5507 0 10.9654 0 10.3551V2.30113C0 1.69083 0.242125 1.10553 0.67311 0.673986C1.10409 0.242441 1.68864 0 2.29814 0H3.44721C3.81356 0.000312805 4.17448 0.0885849 4.49972 0.257414C4.82496 0.426243 5.10502 0.670708 5.31642 0.970297L9.19256 0H15.5082C16.3155 3.8147e-06 17.0972 0.283716 17.717 0.801672C18.3368 1.31963 18.7554 2.03897 18.8998 2.83428L19.9444 8.58711C20.0347 9.08453 20.0148 9.59574 19.8861 10.0846C19.7573 10.5735 19.5229 11.028 19.1994 11.4162C18.8759 11.8044 18.4711 12.1166 18.0138 12.3309C17.5565 12.5452 17.0577 12.6562 16.5528 12.6562ZM3.44721 1.15057H2.29814C1.9935 1.15092 1.70143 1.27225 1.48601 1.48795C1.2706 1.70364 1.14942 1.99609 1.14907 2.30113V10.3551C1.14942 10.6601 1.2706 10.9526 1.48601 11.1683C1.70143 11.384 1.9935 11.5053 2.29814 11.5057H3.44721C3.75186 11.5053 4.04392 11.384 4.25934 11.1683C4.47476 10.9526 4.59593 10.6601 4.59628 10.3551V2.30113C4.59593 1.99609 4.47476 1.70364 4.25934 1.48795C4.04392 1.27225 3.75186 1.15092 3.44721 1.15057ZM18.8139 8.79294L17.7693 3.04011C17.6732 2.5098 17.3942 2.03011 16.9809 1.68477C16.5677 1.33943 16.0464 1.15036 15.5082 1.15057H9.33402L5.74535 2.04888V10.3551H6.22135L6.55785 10.6921L10.0051 14.1438L10.0856 14.2243L10.1486 14.3191L11.5364 16.4035C11.6674 16.5997 11.8633 16.7434 12.0896 16.8092C12.316 16.875 12.5583 16.8588 12.7738 16.7633C12.9894 16.6679 13.1644 16.4993 13.2681 16.2874C13.3717 16.0754 13.3974 15.8337 13.3405 15.6046L12.6741 12.9353L12.3172 11.5057H16.5528C16.8894 11.5057 17.2219 11.4316 17.5268 11.2888C17.8317 11.1459 18.1015 10.9378 18.3172 10.679C18.5329 10.4202 18.6892 10.1172 18.775 9.79127C18.8608 9.46536 18.8741 9.12455 18.8139 8.79294Z" fill="#52A9EB"/>
</svg>
