<svg width="16" height="18" viewBox="0 0 16 18" fill="none" xmlns="http://www.w3.org/2000/svg">
<path d="M15.5565 4.63318C15.535 4.15964 15.535 3.70762 15.535 3.25561C15.535 2.88969 15.2552 2.60987 14.8893 2.60987C12.1987 2.60987 10.1538 1.83498 8.45338 0.177578C8.19509 -0.0591928 7.80764 -0.0591928 7.54935 0.177578C5.8489 1.83498 3.80405 2.60987 1.11347 2.60987C0.747553 2.60987 0.467732 2.88969 0.467732 3.25561C0.467732 3.70762 0.467732 4.15964 0.446208 4.63318C0.360109 9.15336 0.230961 15.3525 7.78612 17.957L8.00136 18L8.21661 17.957C15.7502 15.3525 15.6426 9.17489 15.5565 4.63318ZM7.48477 10.8969C7.35562 11.0045 7.20495 11.0691 7.03275 11.0691H7.01123C6.83903 11.0691 6.66683 10.983 6.55921 10.8538L4.55742 8.63677L5.52603 7.77578L7.09733 9.51928L10.5843 6.20448L11.4668 7.15157L7.48477 10.8969Z" fill="#707070"/>
</svg>
