<svg width="32" height="32" viewBox="0 0 32 32" fill="none" xmlns="http://www.w3.org/2000/svg">
<path d="M31.6964 17.2806C32.1012 16.4787 32.1012 15.5213 31.6964 14.7194L31.2771 13.889C31.1858 13.708 31.1538 13.5065 31.1848 13.306L31.3268 12.3867C31.4641 11.499 31.1683 10.5885 30.5354 9.95097L29.8802 9.29079C29.7373 9.14684 29.6446 8.96495 29.6121 8.76475L29.4632 7.84655C29.321 6.96972 28.7691 6.20254 27.9844 5.78844L27.1782 5.31296C27.1626 5.30377 27.1467 5.29502 27.1306 5.28677C26.9503 5.19408 26.806 5.04975 26.7133 4.86936L26.2879 4.04217C25.8868 3.26211 25.0689 2.68525 24.1534 2.53673L23.2352 2.38785C23.035 2.35534 22.8531 2.26271 22.7092 2.11989L22.049 1.46452C21.4115 0.831717 20.5011 0.536068 19.6133 0.673079L18.694 0.815153C18.4935 0.846156 18.2919 0.814216 18.1109 0.722833L17.2806 0.303611C16.4787 -0.101172 15.5213 -0.101235 14.7195 0.303611L13.8891 0.722833C13.7081 0.814153 13.5066 0.846031 13.306 0.815216L12.3868 0.673142C11.4989 0.535818 10.5885 0.83178 9.95101 1.46458L9.29077 2.11982C9.14688 2.26271 8.96499 2.35534 8.76479 2.38785L7.84652 2.53673C6.93107 2.68525 6.11319 3.26204 5.7121 4.04217L5.28675 4.86936C5.19399 5.04969 5.04967 5.19408 4.86928 5.28677L4.04202 5.71218C3.26196 6.11328 2.6851 6.93116 2.53665 7.84661L2.3877 8.76487C2.35526 8.96508 2.26256 9.14691 2.11967 9.29086L1.4645 9.95103C0.831694 10.5885 0.535857 11.499 0.673056 12.3867L0.815192 13.3061C0.846195 13.5065 0.814255 13.708 0.72281 13.889L0.303588 14.7194C-0.101196 15.5212 -0.101196 16.4786 0.303588 17.2805L0.72281 18.1109C0.814192 18.2919 0.846132 18.4935 0.815192 18.6939L0.673056 19.6133C0.535857 20.501 0.831756 21.4115 1.4645 22.049L2.1198 22.7092C2.26269 22.8532 2.35538 23.035 2.38782 23.2353L2.53677 24.1534C2.68522 25.0689 3.26208 25.8868 4.04215 26.2879L4.86934 26.7132C5.04973 26.806 5.19405 26.9503 5.28681 27.1307L5.71216 27.958C6.11332 28.738 6.9312 29.3149 7.84665 29.4633L8.76485 29.6123C8.96505 29.6448 9.14694 29.7374 9.29083 29.8802L9.95107 30.5356C10.5887 31.1684 11.4991 31.4641 12.3868 31.327L13.3061 31.1849C13.5064 31.1538 13.7081 31.1859 13.8891 31.2772L14.7195 31.6965C15.1204 31.8988 15.5602 32 16 32C16.4399 32 16.8796 31.8988 17.2806 31.6965L18.1109 31.2772C18.2919 31.1859 18.4937 31.154 18.694 31.1849L19.6132 31.3269C20.5009 31.4641 21.4115 31.1683 22.049 30.5355L22.7092 29.8802C22.8531 29.7373 23.035 29.6447 23.2352 29.6122L24.1534 29.4632C25.0302 29.321 25.7974 28.7692 26.2115 27.9843L26.687 27.1781C26.6962 27.1625 26.705 27.1467 26.7132 27.1306C26.8059 26.9503 26.9503 26.8059 27.1306 26.7132L27.9578 26.2878C28.7566 25.8771 29.3194 25.1025 29.4632 24.2158L29.6121 23.2977C29.6446 23.0975 29.7373 22.9156 29.8802 22.7717C29.8901 22.7617 30.5518 22.0323 30.5518 22.0323C31.1733 21.3957 31.4629 20.4932 31.3268 19.6133L31.1848 18.694C31.1538 18.4936 31.1857 18.2919 31.2771 18.1109L31.6964 17.2806Z" fill="url(#paint0_linear_3413_24599)"/>
<circle cx="16.0008" cy="16.0023" r="11.3133" fill="#C9E8FF"/>
<path d="M11.6624 21.1293C13.6844 21.1293 15.1571 19.9705 15.1525 18.3732C15.1571 17.1914 14.4184 16.342 13.0935 16.1527V16.0788C14.1184 15.8572 14.8062 15.0955 14.8016 14.0337C14.8062 12.5934 13.5782 11.4162 11.6901 11.4162C9.85275 11.4162 8.43088 12.5103 8.39395 14.0938H10.042C10.0697 13.2997 10.8084 12.8058 11.6809 12.8058C12.5626 12.8058 13.1489 13.3413 13.1443 14.1353C13.1489 14.9616 12.4657 15.511 11.487 15.511H10.6514V16.8313H11.487C12.6827 16.8313 13.3936 17.4315 13.389 18.2855C13.3936 19.1211 12.6688 19.6935 11.6578 19.6935C10.7068 19.6935 9.97278 19.1996 9.93123 18.4286H8.19544C8.2416 20.0259 9.66809 21.1293 11.6624 21.1293ZM20.2317 21.18C22.5123 21.1847 23.8741 19.3842 23.8741 16.282C23.8741 13.1982 22.5031 11.4162 20.2317 11.4162C17.9604 11.4162 16.594 13.1935 16.5893 16.282C16.5893 19.3796 17.9512 21.18 20.2317 21.18ZM20.2317 19.7351C19.0545 19.7351 18.3159 18.5533 18.3205 16.282C18.3251 14.0291 19.0592 12.8427 20.2317 12.8427C21.4089 12.8427 22.143 14.0291 22.1476 16.282C22.1476 18.5533 21.4136 19.7351 20.2317 19.7351Z" fill="url(#paint1_linear_3413_24599)"/>
<defs>
<linearGradient id="paint0_linear_3413_24599" x1="16" y1="0" x2="16" y2="32" gradientUnits="userSpaceOnUse">
<stop stop-color="#FFDE01"/>
<stop offset="1" stop-color="#FD6400"/>
</linearGradient>
<linearGradient id="paint1_linear_3413_24599" x1="15.9984" y1="9" x2="15.9984" y2="22.8667" gradientUnits="userSpaceOnUse">
<stop stop-color="#FFBE01"/>
<stop offset="1" stop-color="#FE8C01"/>
</linearGradient>
</defs>
</svg>
